<?xml version="1.0" encoding="utf-8"?>
<!-- Generator: Adobe Illustrator 24.0.0, SVG Export Plug-In . SVG Version: 6.00 Build 0)  -->
<svg version="1.1" id="Calque_1" xmlns="http://www.w3.org/2000/svg" xmlns:xlink="http://www.w3.org/1999/xlink" x="0px" y="0px"
	 viewBox="0 0 16383 16383" style="enable-background:new 0 0 16383 16383;" xml:space="preserve">
<style type="text/css">
	.st0{fill:#FFFFFF;}
</style>
<g>
	<g>
		<path class="st0" d="M7492,8684c0-333.3,0-666.7,0-1000c333.7,0,667.3,0,1001,0c0,333.3,0,666.7,0,1000
			C8159.3,8684,7825.7,8684,7492,8684z M8158.6,8115.6c0.5,6.7,1,11.9,1.3,17.1c2.6,40.5,5.1,81.1,7.8,121.6
			c0.2,2.9-0.7,4.3-3.2,5.8c-7.8,4.7-15.5,9.7-22.9,15.1c-5.3,3.8-7.1,9.6-5.6,16c1.4,6.1,5.3,10,11.2,11.6c5.5,1.4,11,2.9,16.6,3.4
			c4.1,0.4,8.9,0.2,12.6-1.5c22.2-10.3,44.2-21,66.2-31.7c7.3-3.6,10.9-9.8,10.1-17.9c-0.3-2.9,0.7-4.2,2.8-5.5
			c5.9-3.8,9-9.2,8.6-16.4c-0.2-3.9,0-7.7,0-11.6c1.7,1.5,2.4,3.1,3.2,4.7c9,20.8,18,41.6,27,62.3c4.9,11.3,16.7,14.1,26.3,6.4
			c6.4-5.1,12.9-10.3,19.4-15.5c10.4,9.8,18.5,11,31.8,4.4c3.7-1.8,7.4-4,10.7-6.4c21.4-15.6,39.2-34.5,53.1-57.1
			c2.7-4.4,5-9.1,6.7-13.9c3.4-9.4-0.9-19.2-9.5-23c-8.8-3.9-18.5-0.4-23.5,8.4c-1.1,2-2.3,4-3.7,5.8c-4,5-8.5,9.7-12.1,15
			c-4.7,7-9.4,14-17.4,19.2c-2.2-17.5-1.5-34.2-0.6-50c7.6,0,14.2-0.1,20.7,0c17.6,0.4,28-8,30.9-25.3c2.5-14.9,0.9-29.6-2.7-44.1
			c-3.7-14.8-8.9-29-19.3-40.6c-10.3-11.4-23.8-13.5-35-4.2c-1.3,1.1-3.2,1.9-4.9,2.1c-8.2,1-14.1,5.5-18.8,12c-1,1.4-2,2.8-3.7,5.3
			c-0.2-3.5-0.4-5.4-0.5-7.3c-1-12.6-1.9-25.2-3.1-37.8c-0.7-7.2-6.1-13.1-13-14.9c-7.6-1.9-14.6,0.6-19.3,6.2
			c-1.6,2-4.1,3.7-6.5,4.6c-7.9,2.9-12.5,8.3-12.3,16.3c0.4,19.5,1.2,38.9,1.7,58.4c0.2,8,0,16,0,25.3c-1.2-2.8-1.9-4.5-2.6-6.1
			c-7.5-18.5-15.2-37-22.3-55.6c-3.7-9.8-9.1-16.6-20.3-16.4c-4-14.8-12-19.4-26.1-15.5c-0.9,0.3-1.9,0.3-2.9,0.5
			c-5.3,1-10.8,1.5-15.8,3.3c-6,2-11.5,5.2-17.4,7.5c-1.6,0.6-3.9,0-5.7-0.5c-4.2-1.2-8.5-4-12.6-3.6c-11.5,1-23.1,2.7-34.4,5.2
			c-11.3,2.4-22.4,6.1-33.7,9.3c-2.5-8.1-7.2-13.7-15.4-15.3c-10.1-2-20.2-3.8-30.4-5c-4-0.5-7-1.5-10.1-4.1c-2.5-2.1-6.8-4-9.5-3.3
			c-9.2,2.5-18.1,1.4-27.2-0.3c-0.6-0.1-1.3,0.2-2,0.1c-3.9-0.1-7.9,0.1-11.7-0.6c-12.8-2.3-25.5-5.1-38.2-7.6
			c-8.6-1.7-15.8,1.9-18.8,9.3c-2.9,7.4-0.1,15.1,7.4,19.7c3,1.8,6,3.5,9,5.4c-4.4,4.8-4.8,5.1-13.2,5.7
			c-11.8,0.9-21.6,4.6-25.8,17.1c-1.5,4.6-4,8.8-6,13.2c-1.1,2.4-2,4.8-3.3,7.7c-6.5-18.8-10.6-26-18.7-34.1
			c-10.9-10.9-28-15.1-42.3-1.4c-1.8,1.7-4.5,2.6-6.8,3.8c-4.5,2.3-9.7,3.8-13.5,7c-5.6,4.6-10.2,10.4-15.5,16.1
			c-10-13.6-23.7-22.1-41.1-25.2c1.7-2.2,3-3.7,4.1-5.3c4-5.7,4.8-11.8,1.4-17.9c-3.4-6-8.7-8.7-15.9-8c-8.1,0.8-16.3,0.9-24.4,2.1
			c-4.2,0.6-8.8,2.2-12.2,4.7c-20.5,15.1-40.8,30.6-61.1,46c-4.3,3.3-8.7,6.5-13.3,9.9c-4.3-19.1-13.7-28.7-29.7-30
			c-10.6-0.9-20.5,2-29.2,8.3c-11.4,8.5-19.5,19.7-24.4,32.8c-7.9,21.2-9.3,43.2-6.8,65.5c2.2,19.8,12.4,32.8,32,38.2
			c10,2.7,18,8.8,23.7,17.3c4.8,7.2,9,14.8,12.8,22.6c3.1,6.3,5.3,13.1,7.9,19.7c-0.4,0.4-0.9,0.7-1.3,1.1
			c-3.5-2.1-7.2-3.9-10.4-6.2c-14.5-10.5-24.2-25-32.6-40.5c-4.7-8.6-12.1-12.5-19.9-10.8c-8.4,1.9-16.6,10.7-16,19.4
			c0.5,6.6-2.3,11.5-4.5,16.9c-0.9,2.3-1.6,5.3-0.9,7.5c12.2,37.2,37.5,61.5,74.8,72.8c16.1,4.9,31.1-2.6,39.1-17.3
			c4.4-8,8.9-15.9,13.7-24.5c1.3,6.8,2.5,13.1,3.7,19.4c1.2,6.5,4.8,11,11.2,12.8c6.5,1.8,12.4,0.2,16.6-5.2c7.1-9,17-15.8,21-27.4
			c7,9.7,16.7,11.8,24.3,5.6c4.6-3.8,9.2-7.6,13.8-11.4c5.7-4.6,8.9-10.2,8.3-17.8c-0.1-0.9,0.1-1.8,0.3-3.9
			c2.6,2.8,4.4,4.9,6.3,6.9c15.3,16.7,30.6,33.4,46.1,50c7.4,7.9,18.8,6.5,24.8-2.7c0.8-1.2,1.5-2.7,2.7-3.5
			c7.8-5.3,12.5-14.2,21.9-17.7c2.5-0.9,4.6-3.8,6.3-6.2c5.7-7.6,11.3-15.4,16.8-23c2.4,4.7,4.5,10,7.5,14.7
			c9.8,15.3,29.6,15.7,41.6,2.1c7.1-8.1,15.9-14.5,24-21.7c0.4,0.2,0.8,0.4,1.2,0.7c0,2.1-0.1,4.2,0,6.3c0.8,16.5,1.2,33,2.8,49.3
			c1.2,12.3,15.3,18.2,24.9,10.8c8.9-6.9,19.6-12.6,21.3-25.6c4,1.3,7.4,2.1,10.6,3.4c14.1,5.6,21.6,3.7,31-8.1
			c28.6-35.9,58.7-70.3,95.4-98.5c6.6-5,8.4-13.7,5.1-21.2c-3.4-7.6-11-11.8-19.7-10.3c-8.2,1.4-16.3,3-24.8,4.6
			C8129.1,8159.6,8143.5,8138.1,8158.6,8115.6z"/>
		<path d="M8158.6,8115.6c-15.1,22.6-29.5,44-43.7,65.2c8.5-1.6,16.7-3.2,24.8-4.6c8.7-1.4,16.3,2.7,19.7,10.3
			c3.3,7.5,1.5,16.1-5.1,21.2c-36.7,28.1-66.8,62.5-95.4,98.5c-9.4,11.8-16.9,13.7-31,8.1c-3.2-1.3-6.6-2.1-10.6-3.4
			c-1.7,13.1-12.4,18.7-21.3,25.6c-9.6,7.4-23.7,1.5-24.9-10.8c-1.5-16.4-1.9-32.9-2.8-49.3c-0.1-2.1,0-4.2,0-6.3
			c-0.4-0.2-0.8-0.4-1.2-0.7c-8.1,7.2-16.9,13.7-24,21.7c-12,13.7-31.9,13.3-41.6-2.1c-3-4.7-5.1-10-7.5-14.7
			c-5.5,7.6-11,15.4-16.8,23c-1.8,2.4-3.8,5.2-6.3,6.2c-9.4,3.5-14.1,12.4-21.9,17.7c-1.2,0.8-1.9,2.3-2.7,3.5
			c-5.9,9.2-17.4,10.6-24.8,2.7c-15.5-16.5-30.7-33.3-46.1-50c-1.9-2-3.7-4.1-6.3-6.9c-0.1,2.1-0.3,3-0.3,3.9
			c0.6,7.5-2.7,13.2-8.3,17.8c-4.6,3.8-9.2,7.6-13.8,11.4c-7.6,6.2-17.3,4.1-24.3-5.6c-4,11.6-13.9,18.4-21,27.4
			c-4.2,5.4-10.2,6.9-16.6,5.2c-6.3-1.7-10-6.3-11.2-12.8c-1.1-6.3-2.4-12.6-3.7-19.4c-4.8,8.6-9.4,16.5-13.7,24.5
			c-8,14.7-23.1,22.2-39.1,17.3c-37.3-11.3-62.5-35.6-74.8-72.8c-0.7-2.2,0-5.2,0.9-7.5c2.1-5.5,5-10.4,4.5-16.9
			c-0.6-8.7,7.6-17.5,16-19.4c7.9-1.7,15.2,2.2,19.9,10.8c8.4,15.5,18.1,30,32.6,40.5c3.3,2.4,6.9,4.2,10.4,6.2
			c0.4-0.4,0.9-0.7,1.3-1.1c-2.6-6.6-4.8-13.4-7.9-19.7c-3.8-7.7-8-15.4-12.8-22.6c-5.7-8.5-13.8-14.6-23.7-17.3
			c-19.6-5.4-29.8-18.5-32-38.2c-2.5-22.3-1.1-44.3,6.8-65.5c4.9-13.2,13-24.4,24.4-32.8c8.6-6.4,18.5-9.2,29.2-8.3
			c16,1.3,25.4,10.9,29.7,30c4.5-3.4,8.9-6.6,13.3-9.9c20.3-15.4,40.6-30.9,61.1-46c3.4-2.5,8-4.1,12.2-4.7c8-1.2,16.3-1.3,24.4-2.1
			c7.1-0.7,12.5,2,15.9,8c3.4,6.1,2.6,12.2-1.4,17.9c-1.1,1.6-2.4,3.1-4.1,5.3c17.4,3,31,11.6,41.1,25.2c5.3-5.6,9.9-11.4,15.5-16.1
			c3.8-3.2,9-4.7,13.5-7c2.3-1.2,5-2.1,6.8-3.8c14.3-13.8,31.4-9.6,42.3,1.4c8,8.1,12.2,15.3,18.7,34.1c1.3-3,2.2-5.4,3.3-7.7
			c2-4.4,4.5-8.6,6-13.2c4.2-12.6,13.9-16.3,25.8-17.1c8.4-0.6,8.8-0.9,13.2-5.7c-3-1.8-6-3.5-9-5.4c-7.5-4.5-10.3-12.2-7.4-19.7
			c2.9-7.4,10.2-11,18.8-9.3c12.7,2.5,25.4,5.3,38.2,7.6c3.8,0.7,7.8,0.4,11.7,0.6c0.7,0,1.4-0.2,2-0.1c9,1.7,17.9,2.8,27.2,0.3
			c2.7-0.7,7,1.2,9.5,3.3c3.1,2.6,6.1,3.7,10.1,4.1c10.2,1.2,20.3,3,30.4,5c8.1,1.6,12.8,7.2,15.4,15.3c11.4-3.2,22.4-6.8,33.7-9.3
			c11.3-2.4,22.9-4.2,34.4-5.2c4.1-0.4,8.3,2.5,12.6,3.6c1.8,0.5,4.1,1.1,5.7,0.5c5.9-2.3,11.4-5.5,17.4-7.5
			c5.1-1.7,10.5-2.2,15.8-3.3c1-0.2,2-0.2,2.9-0.5c14-4,22.1,0.7,26.1,15.5c11.2-0.2,16.5,6.6,20.3,16.4
			c7.1,18.7,14.8,37.1,22.3,55.6c0.7,1.7,1.4,3.3,2.6,6.1c0-9.3,0.2-17.3,0-25.3c-0.5-19.5-1.3-38.9-1.7-58.4
			c-0.2-8,4.5-13.4,12.3-16.3c2.4-0.9,4.9-2.6,6.5-4.6c4.7-5.7,11.7-8.2,19.3-6.2c6.9,1.8,12.3,7.7,13,14.9
			c1.2,12.6,2.1,25.2,3.1,37.8c0.2,1.9,0.3,3.9,0.5,7.3c1.8-2.5,2.7-3.9,3.7-5.3c4.7-6.5,10.6-10.9,18.8-12c1.7-0.2,3.6-1,4.9-2.1
			c11.2-9.3,24.7-7.2,35,4.2c10.5,11.6,15.7,25.8,19.3,40.6c3.6,14.5,5.1,29.2,2.7,44.1c-2.9,17.3-13.3,25.7-30.9,25.3
			c-6.5-0.1-13,0-20.7,0c-0.9,15.8-1.6,32.5,0.6,50c8-5.2,12.6-12.1,17.4-19.2c3.6-5.3,8.1-9.9,12.1-15c1.4-1.8,2.6-3.8,3.7-5.8
			c5-8.8,14.7-12.2,23.5-8.4c8.7,3.8,12.9,13.6,9.5,23c-1.7,4.8-4,9.5-6.7,13.9c-13.9,22.6-31.7,41.5-53.1,57.1
			c-3.3,2.4-7,4.6-10.7,6.4c-13.3,6.6-21.4,5.4-31.8-4.4c-6.5,5.2-12.9,10.3-19.4,15.5c-9.6,7.7-21.4,4.9-26.3-6.4
			c-9.1-20.7-18-41.5-27-62.3c-0.7-1.6-1.5-3.2-3.2-4.7c0,3.9-0.2,7.8,0,11.6c0.4,7.2-2.6,12.6-8.6,16.4c-2.1,1.4-3.1,2.6-2.8,5.5
			c0.8,8.1-2.8,14.4-10.1,17.9c-22,10.8-44,21.5-66.2,31.7c-3.7,1.7-8.4,1.8-12.6,1.5c-5.6-0.5-11.1-1.9-16.6-3.4
			c-5.9-1.6-9.8-5.5-11.2-11.6c-1.5-6.5,0.3-12.2,5.6-16c7.4-5.4,15.1-10.3,22.9-15.1c2.6-1.5,3.4-3,3.2-5.8
			c-2.6-40.5-5.2-81.1-7.8-121.6C8159.6,8127.5,8159.1,8122.2,8158.6,8115.6z M7846,8286.7c-1.3-1-2.8-1.9-3.8-3.1
			c-23.1-27.5-46.3-55.1-69.3-82.7c-2.3-2.7-4.2-5.8-6.4-8.8c11.2-9,21.2-18.4,29.1-30c18.6-27.5,1.5-65.3-27.5-73.5
			c-16.2-4.6-26.8-1-36.2,12.9c-1,1.5-2.1,3.4-1.9,4.9c0.4,4.2-1.6,6.9-4.4,9.5c-4.2,4-6.6,8.5-6.1,14.6
			c2.9,39.2,5.4,78.3,8.6,117.5c1.2,14.1,4,28,6.2,41.9c0.2,1.3,1.1,3.2,2.1,3.6c0.9,0.3,2.5-1,3.6-1.8c3.8-2.9,7.5-6,11.4-8.8
			c3.6-2.6,5-5.6,4.3-10.2c-2-15-3.5-30-5.4-46.4c1.5,1.9,2.2,2.8,2.9,3.6c14.9,17.7,29.5,35.6,44.7,53.1
			c9.9,11.4,20.5,22.3,30.9,33.3c1.6,1.7,3.2,4.4,6.1,1.4c4.4-4.5,8.8-9,13.4-13.3c3.7-3.5,5.3-7.2,2.4-11.9
			c9.3,3.6,12.1,2.6,17.4-6.2c0.3-0.4,0.5-0.9,0.9-1.2c9.8-8.1,13.6-19.3,16.7-31.1c6.8-25.9,11.4-52,9.5-78.9
			c-0.3-4.9-2.1-6.2-7.1-5.7c-4.3,0.4-4.3,3.7-3.9,6.7c0.5,3.5-0.3,5.9-3.6,7.8c-7.4,4.5-10.4,10.5-9.6,19.9
			c1.1,13.7,0.1,27.6-0.5,41.4c-0.2,4.9-1.8,9.8-2.8,14.7c-0.7,0.2-1.5,0.3-2.2,0.5c-3.2-5.9-7.3-11.5-9.3-17.8
			c-3.5-11.1-5.9-22.5-8.3-33.9c-2.3-10.7-4-21.4-5.9-31.9c11.5-1.7,22-3,32.5-4.8c8.8-1.5,16.6-9.2,16.3-17.7
			c-0.4-14.4-1.3-28.9-3.2-43.2c-1.6-11.8-7.5-22-16.7-29.9c-7.1-6.1-14.2-6.4-21-0.3c-4.8,4.4-9.7,7.6-16.3,8.5
			c-2.4,0.3-4.7,2.4-6.7,4.1c-11.9,10-17.5,23-18.1,38.5c-0.9,21.6,1.4,42.9,6,63.9C7821.8,8227.4,7829.4,8258.6,7846,8286.7z
			 M8170.5,8095.8c0.1,1.1,0.2,2.8,0.3,4.4c1.6,24.6,3.2,49.2,4.7,73.8c1.8,29.1,3.6,58.2,5.5,87.3c0.3,4-1,5.9-4.8,7.9
			c-8.7,4.5-16.9,9.9-25.1,15.2c-1.2,0.7-1.6,2.6-2.4,4c1.4,0.7,2.6,1.7,4.1,2.1c3.2,1,6.5,1.5,9.7,2.5c4,1.1,7.7,0.9,11.5-1.1
			c10.4-5.3,20.9-10.2,31.4-15.3c10.3-5,20.7-10,31-15c2.7-1.3,4.5-3.7,2.7-6.3c-1-1.5-4.9-3.1-5.8-2.4c-7.3,5.5-17,0.3-24.4,7.3
			c-0.2-3-0.2-4.6-0.3-6.3c-2.4-33.7-4.6-67.4-7.1-101.2c-1.7-22.8-3.5-45.5-5.4-68.2c-0.3-3.4,0.6-5.3,4-6.7
			c9.1-3.7,18-7.9,26.9-11.9c3.1-1.4,5.1-3.6,3.5-7.1c-1.6-3.5-4.4-3.3-7.6-2.2c-2.3,0.8-4.7,1-7.1,1.4c-3.5,0.6-7.3,0.4-10.5,1.8
			c-11.5,4.8-22.8,10.1-34.3,15.2c0.6-7.4-1.5-11-6.5-10.7c-7.1,0.4-14.5,0.4-21.3,2.2c-38.1,9.7-75.6,21.1-112,36.2
			c-1.4,0.6-3,1-5.1,1.8c2.1-9.9,4.2-19,5.8-28.1c0.6-3.3,1.9-3.9,5-3.6c12.1,1.3,24.2,2.3,36.3,3.3c6.2,0.5,9.4-1.6,9.7-5.9
			c0.3-4.3-2.8-6.9-8.8-7.2c-2.3-0.1-4.7-0.3-7-0.6c-9.6-1.3-19.3-2.6-28.9-3.8c-1.2-0.2-2.5,0-3.8,0c0.3-0.3,0.6-0.7,0.8-1
			c-1.6-2.2-2.9-5.5-5-6.2c-1.7-0.6-4.4,2.1-7.9,4c-1.6-0.4-4.8-1.3-8-2.1c-3.7-0.8-8-3-11.1-1.9c-4.4,1.6-8,0.6-11.9-0.2
			c-14-2.8-28.1-5.7-42.1-8.3c-1.3-0.2-2.8,0.7-4.2,1.2c0.4,1.1,0.5,2.9,1.3,3.3c11,5.6,20.4,14.6,33.3,16.4
			c5.4,0.7,10.7,2.1,16.3,3.2c-9.5,47.7-11.2,95.7-13.6,143.8c-8.1-2.8-9.6-2.1-13.1,5.4c-5.6,12-11.8,23.7-21.8,32.6
			c-11.4,10.1-14.4,11.9-19.2-5.7c-4.6-16.7-3.7-34-3.9-51.2c0-1.7,0.4-3.4,0.7-5.4c4.6,1.5,8.5,3,12.5,4.1c1.8,0.4,4.7,0.7,5.6-0.3
			c4.1-4.7,9.6-4,14.7-4.8c8-1.2,12.4-5.5,13.5-13.6c2.6-19.8,5.3-39.6,7.5-59.5c1.2-11.3-0.6-22.3-7.5-31.9
			c-5.1-7-10.3-7.8-17.2-2.9c-4.6,3.4-9,6.1-15.3,5.4c-8.3-0.9-14.8,2.4-17.7,11.1c-1.2,3.8-3.4,7.2-4.9,10.9
			c-18.4,48-21.9,97.5-13.5,147.9c1.6,9.7,5.2,19.3,9.3,28.3c4,8.7,13.8,10,19.7,2.8c5.7-6.9,12.5-12.1,19.5-17.4
			c11.2-8.4,17.9-20.5,24-32.7c2-4.1,4-8.2,6-12.3c0.3,0.1,0.5,0.2,0.8,0.2c0,2,0,3.9,0,5.9c0,24.5-0.1,49,0.1,73.5
			c0.1,7.1,0.9,14.3,1.7,21.4c0.5,4.5,2.5,5.1,5.9,2.4c2.1-1.6,4.1-3.4,6.4-4.7c6.3-3.8,9-9.5,9-16.7c0-7,0-14,0.2-21
			c1.7-51.2,7.4-101.9,16.2-152.3c1.2-7.1,2.7-14.1,4.1-21.9c9.8,9.7,15.8,20.5,20.2,32.4c0.7,1.9,2,4.7,3.5,5
			c7.3,1.7,14.6,3.1,22,4c3.5,0.4,5-2.3,3.4-5.3c-6.1-11.8-7.3-26.2-19.6-35.3c27.5-12.4,55-21.1,84.1-28.9
			c-4.5,6.4-8.4,11.8-12.2,17.2c-31.2,44.3-60.9,89.5-82.9,139.3c-8,18.2-13.8,37.4-20.6,56.2c-1.1,3.1-1.1,6,2.6,7.4
			c3.3,1.2,6.6,2.2,9.9,3.3c4.6,1.6,8,0.6,11.3-3.4c29.2-36.9,60-72.3,97.5-101.2c2.8-2.1,4.6-4.7,1.9-8c-2.5-2.9-5.1-1.9-7.9,0
			c-1.2,0.9-3.4,1.4-4.7,1c-4.5-1.6-8.4-1.1-12.1,2c-10.6,8.9-21.4,17.5-31.8,26.6c-6.8,6-13,12.6-19.5,18.9
			c4.6-11.6,9.2-23.1,15-34.1c20.2-38,46.6-72.1,70-108.2c0.6-1,2.7-1.5,4.1-1.5C8163.1,8095.3,8166.4,8095.6,8170.5,8095.8z
			 M7631.3,8129.7c-1-7.4-2-14.4-3-21.5c-2.3-16.5-12.1-23.1-28.2-18.4c-15.5,4.6-23.7,16.9-29.3,30.7c-7.9,19.2-8.6,39.5-6.5,60
			c1.5,14.5,8.7,23.9,23.2,27.7c12.1,3.1,21.9,10.5,29,20.3c11.2,15.6,19.8,32.7,24.5,51.6c1.1,4.3,2.1,8.6-1.8,12
			c-4,3.5-8.6,3.8-13.6,2.2c-13.6-4.6-24.5-13.1-33.1-24c-7.4-9.3-13.4-19.8-20.3-29.6c-1.3-1.8-3.7-4.2-5.4-4.1
			c-2,0.1-4.2,2.5-5.4,4.5c-0.8,1.2-0.1,3.5-0.2,5.2c-0.1,2.2,0.2,4.5-0.4,6.5c-1,3.1-3,6-4.1,9.1c-0.7,2-1.2,4.7-0.5,6.6
			c12,29.8,33.3,49.7,63.9,59.3c8.3,2.6,16.5,0.7,21.5-6.6c5.8-8.4,10.2-17.7,15.1-26.6c0.7-1.3,1-2.8,1.2-4.3
			c3.1-17.7,3.5-35.5-1-53c-4.3-16.8-10.3-33.1-25.1-43.6c-7.8-5.5-16.4-10.1-25.1-14.2c-8.5-4.1-13.5-10-14.2-19.4
			c-0.8-10.4,0.9-20.6,4.5-30.4c0.1-0.3,0.6-0.5,1.2-0.9c0.2,1.2,0.4,1.9,0.6,2.7c1.7,10.2,3.4,20.4,5.1,30.5
			c0.5,3.1,1.3,5.7,5.5,3.9c6.1-2.6,12.3-5.1,18.5-7.4c6.5-2.4,6.9-2.9,6-9.8c-0.7-5.2-1.4-10.5-2.1-15.7c7.3,0.5,14.4,2.4,20.7,1
			c6.4-1.5,11.9-6.4,17.5-9.6c0,8,0,16.1,0,24.2c-0.2,33.9,1.9,67.6,6.3,101.1c2.8,21.3,6.5,42.4,9.9,63.6c0.3,1.6,1.5,3.1,2.3,4.7
			c1.6-0.9,3.6-1.4,4.9-2.7c4.3-4.4,8.4-9,12.5-13.6c3-3.4,4.4-7,3.7-11.9c-1.8-12.7-3.1-25.4-4.5-38.2
			c-5.2-49.8-6.6-99.7-0.7-149.5c0.3-2.2,2-4.9,3.9-6.2c12.3-8.5,24.9-16.7,37.3-25.1c3.7-2.5,7.1-5.5,10.3-8.6
			c1-0.9,1.7-3.2,1.2-4.4c-0.4-1-2.7-1.8-4.1-1.7c-7,0.3-14,0.6-20.9,1.7c-3.7,0.6-7.7,2.1-10.7,4.3c-15.1,11-29.9,22.4-44.7,33.6
			C7661.5,8106.9,7646.6,8118.2,7631.3,8129.7z M8251.2,8159.6c0.4,0,0.8-0.1,1.1-0.1c5.8,13.4,11.7,26.8,17.5,40.2
			c11.8,27.3,23.7,54.6,35.5,82c2.4,5.6,3.6,5.9,8.3,2.2c3-2.3,6-4.8,9.2-6.9c4.3-2.8,6-6.7,6.1-11.8c0.5-50.9,1.6-101.9,1.4-152.8
			c-0.1-22.4-2.7-44.8-4.1-67.3c-0.2-3.3-1.6-5.4-5.1-5.6c-3.4-0.1-4.8,1.9-4.7,5c0.2,3.1-1.5,4.1-4.2,4.3c-2,0.2-3.9,0.7-5.9,0.9
			c-4.2,0.5-5.9,2.7-5.6,7.1c0.6,9.3,0.7,18.6,1,27.9c1,30.3,2.1,60.6,2.9,90.8c0.3,11.5,0.1,23.1,0.1,34.2
			c-0.3-0.5-0.9-1.6-1.4-2.8c-13.5-33.5-26.9-67-40.4-100.5c-4-9.9-7.9-19.8-12-29.6c-1.8-4.4-7-6-8.4-2.6
			c-2.3,5.6-6.9,5.2-11.1,6.3c-5,1.3-7.3,4.3-7.1,9.4c0.1,3.5,0.3,7,0.3,10.5c0.7,42.6,1.3,85.2,2,127.9c0.1,5.7,0.1,11.3,0.3,17
			c0.1,3.2,1.7,4.1,4.6,2.5c5-2.7,9.9-5.4,14.9-8.1c3.3-1.7,4.6-4.1,4.6-8c-0.1-19.2,0-38.3,0.1-57.5
			C8251.3,8169.5,8251.2,8164.5,8251.2,8159.6z M8363.7,8160.9c10.9,4,20,9.6,31.9,8.2c11.9-1.4,17-3.2,18.6-15.4
			c3.1-24.4-2-47.3-15-68.3c-1.8-2.9-4.4-5.5-7-7.7c-4.8-4-8.3-3.7-13.6-0.2c-3,2-6.2,4.1-9.6,4.6c-6.4,1-11.2,4.1-13.6,9.7
			c-4.2,9.7-8.7,19.5-11.1,29.8c-7.5,32-8.2,64.7-5.8,97.4c1,14.2,3.6,28.4,7.2,42.2c4,15.3,10.9,17.8,24,8.9
			c10.9-7.5,21.1-16.3,30.6-25.5c11.9-11.6,22.3-24.7,29.1-40.3c1.4-3.2,2.3-6.7-1.7-8.6c-4.1-2-6,0.8-7.8,4
			c-1.5,2.7-3.2,5.3-5.2,7.7c-2.9,3.5-6.8,6.4-9,10.3c-6.5,10.9-14.2,20.5-25.2,27.2c-11.1,6.7-14,5.8-16-7.2
			c-1.8-11.6-2.5-23.5-2.5-35.3C8361.7,8188.7,8362.9,8175.1,8363.7,8160.9z M8068.3,8162.7c-6.8-1.3-13-2.7-19.1-3.7
			c-5.6-0.9-10.1-3.4-13.1-8.2c-1.3-2.1-2.2-4.4-3.4-6.8c-4.6,16.3-14.6,106.3-12.8,117.1
			C8032.5,8226.5,8049.5,8194.5,8068.3,8162.7z M7646.8,8147.3c3.4,16.9-7.8,22.2-22.4,25.6c14.5,7.8,25.4,17.4,33.9,30.7
			c-0.6-19.4-1.1-37.8-1.7-56.3C7653.5,8147.3,7650.5,8147.3,7646.8,8147.3z M7937.3,8205c0.7,10.2,1.3,20.8,2,31.5
			c0.7,0.2,1.4,0.4,2.1,0.6c3.9-5.9,7.9-11.7,11.6-17.7c5-8.2,6.7-18.7,17.5-22.7c-0.3-0.4-0.7-0.9-1-1.3
			C7959,8198.5,7948.6,8201.6,7937.3,8205z M8106.1,8104.2c-0.2-0.3-0.5-0.6-0.7-1c-9.6,3.5-19.2,6.9-28.7,10.4
			c2.8,7.6,5.4,14.4,8.3,22.1C8092.4,8124.8,8099.2,8114.5,8106.1,8104.2z M7784.7,8195.2c6.9,8.5,14.1,17.5,21.3,26.5
			c0.3-0.2,0.6-0.5,0.9-0.7c-2.8-13.4-5.6-26.8-8.2-39.4C7794.2,8185.9,7789.6,8190.4,7784.7,8195.2z M8211.2,8088.4
			c-0.6,0-1.1,0-1.7,0c0.6,6.5,1.1,13,1.7,19.4C8211.2,8101.4,8211.2,8094.9,8211.2,8088.4z"/>
		<path class="st0" d="M8170.5,8095.8c-4.1-0.2-7.5-0.5-10.8-0.4c-1.4,0-3.4,0.5-4.1,1.5c-23.4,36-49.8,70.1-70,108.2
			c-5.8,11-10.5,22.5-15,34.1c6.5-6.3,12.7-13,19.5-18.9c10.4-9.1,21.2-17.7,31.8-26.6c3.7-3.1,7.6-3.6,12.1-2
			c1.3,0.5,3.4-0.1,4.7-1c2.8-2,5.5-2.9,7.9,0c2.8,3.3,0.9,5.8-1.9,8c-37.5,28.9-68.3,64.4-97.5,101.2c-3.2,4.1-6.7,5.1-11.3,3.4
			c-3.3-1.2-6.6-2.1-9.9-3.3c-3.7-1.4-3.7-4.3-2.6-7.4c6.8-18.8,12.6-38,20.6-56.2c21.9-49.7,51.7-95,82.9-139.3
			c3.8-5.4,7.7-10.8,12.2-17.2c-29.1,7.8-56.6,16.5-84.1,28.9c12.2,9.1,13.5,23.4,19.6,35.3c1.5,3,0.1,5.7-3.4,5.3
			c-7.4-0.9-14.8-2.2-22-4c-1.5-0.4-2.8-3.1-3.5-5c-4.4-11.9-10.4-22.6-20.2-32.4c-1.5,7.8-2.9,14.9-4.1,21.9
			c-8.8,50.4-14.5,101.2-16.2,152.3c-0.2,7-0.3,14-0.2,21c0,7.2-2.6,12.9-9,16.7c-2.3,1.4-4.3,3.1-6.4,4.7c-3.4,2.6-5.4,2-5.9-2.4
			c-0.8-7.1-1.6-14.3-1.7-21.4c-0.2-24.5-0.1-49-0.1-73.5c0-2,0-3.9,0-5.9c-0.3-0.1-0.5-0.2-0.8-0.2c-2,4.1-3.9,8.2-6,12.3
			c-6.1,12.3-12.8,24.3-24,32.7c-7,5.3-13.8,10.5-19.5,17.4c-5.9,7.2-15.8,5.9-19.7-2.8c-4.1-9-7.7-18.6-9.3-28.3
			c-8.4-50.4-4.9-99.8,13.5-147.9c1.4-3.7,3.6-7.2,4.9-10.9c2.9-8.7,9.4-12,17.7-11.1c6.4,0.7,10.7-2.1,15.3-5.4
			c6.9-5,12.1-4.2,17.2,2.9c6.9,9.5,8.7,20.5,7.5,31.9c-2.1,19.9-4.9,39.6-7.5,59.5c-1.1,8.2-5.5,12.4-13.5,13.6
			c-5.1,0.8-10.7,0.1-14.7,4.8c-0.9,1-3.8,0.8-5.6,0.3c-4-1-7.9-2.5-12.5-4.1c-0.3,2-0.7,3.7-0.7,5.4c0.2,17.1-0.7,34.5,3.9,51.2
			c4.8,17.6,7.7,15.7,19.2,5.7c10-8.9,16.2-20.6,21.8-32.6c3.5-7.4,5-8.1,13.1-5.4c2.5-48.1,4.2-96.2,13.6-143.8
			c-5.6-1.1-10.9-2.5-16.3-3.2c-13-1.7-22.3-10.7-33.3-16.4c-0.8-0.4-0.9-2.2-1.3-3.3c1.4-0.4,2.9-1.4,4.2-1.2
			c14.1,2.7,28.1,5.5,42.1,8.3c4,0.8,7.5,1.7,11.9,0.2c3.1-1.1,7.4,1.1,11.1,1.9c3.2,0.7,6.4,1.6,8,2.1c3.5-1.9,6.2-4.5,7.9-4
			c2.1,0.7,3.4,4,5,6.2c-0.3,0.3-0.6,0.7-0.8,1c1.3,0,2.6-0.1,3.8,0c9.6,1.3,19.3,2.6,28.9,3.8c2.3,0.3,4.6,0.4,7,0.6
			c6,0.4,9.1,2.9,8.8,7.2c-0.3,4.3-3.6,6.4-9.7,5.9c-12.1-1-24.2-2.1-36.3-3.3c-3.1-0.3-4.4,0.2-5,3.6c-1.6,9.1-3.7,18.2-5.8,28.1
			c2.2-0.7,3.7-1.2,5.1-1.8c36.3-15.1,73.9-26.5,112-36.2c6.8-1.8,14.2-1.8,21.3-2.2c5-0.3,7.1,3.4,6.5,10.7
			c11.5-5.2,22.8-10.4,34.3-15.2c3.2-1.3,7-1.2,10.5-1.8c2.4-0.4,4.8-0.7,7.1-1.4c3.2-1.1,6.1-1.2,7.6,2.2c1.6,3.5-0.4,5.7-3.5,7.1
			c-9,4-17.8,8.2-26.9,11.9c-3.4,1.4-4.3,3.3-4,6.7c1.9,22.7,3.7,45.5,5.4,68.2c2.5,33.7,4.7,67.4,7.1,101.2
			c0.1,1.6,0.2,3.3,0.3,6.3c7.4-7,17.1-1.9,24.4-7.3c0.9-0.7,4.8,0.9,5.8,2.4c1.8,2.7,0,5-2.7,6.3c-10.3,5-20.7,10-31,15
			c-10.5,5.1-21,10-31.4,15.3c-3.8,1.9-7.5,2.2-11.5,1.1c-3.2-0.9-6.5-1.5-9.7-2.5c-1.4-0.4-2.7-1.4-4.1-2.1c0.8-1.4,1.2-3.2,2.4-4
			c8.3-5.3,16.4-10.7,25.1-15.2c3.8-2,5.1-3.8,4.8-7.9c-1.9-29.1-3.7-58.2-5.5-87.3c-1.5-24.6-3.1-49.2-4.7-73.8
			C8170.7,8098.6,8170.6,8097,8170.5,8095.8z M8003.2,8183.2c-1.8,3.1-3,7.1-5.6,9.1c-8.1,5.8-10.1,14.7-13.2,23.1
			c-0.4,1,0.2,2.4,0.4,5.2c3.7-5.1,9.1-6.9,9.3-13.2c0.1-2.7,1.9-5.6,3.5-8c3.5-5.5,7.4-10.7,11.1-16c-0.3-0.3-0.7-0.6-1-1
			c-1.6,0.3-3.1,0.6-4.7,1c2.7-3.3,5.6-6.4,7.9-10c1.3-2,1.6-4.7,2.3-7.1c-4.5,4.6-7.8,9.4-10.9,14.4
			C8002,8181.2,8002.9,8182.3,8003.2,8183.2z M8067.5,8209.5c-7.1,4.3-5,12.4-7.4,18.7c-0.4-0.6-0.3-1.2-0.4-1.5
			c-0.8-2.1-1.8-4.2-2.7-6.3c-1.6,1.4-3.9,2.5-4.6,4.2c-1.9,4.7-3.5,9.6-4.5,14.6c-2.1,10.3-7.7,20.2-3.3,31.2
			c0.3,0.8-0.4,2.3-1.1,3.1c-3.9,4.7-7.4,3.6-10.4-4.2c-2.4,7.6-4.5,14.4-6.8,21.9c3.9-0.8,6.5-1.3,9.2-1.8c0.1,0.2,0.1,0.5,0.2,0.7
			c-3.6,1.8-7.2,3.6-10.7,5.4c3.8,2.6,7.1,3.8,10.4,5.3c4.5,2,7.5,0.9,10.7-3c17.6-20.6,35.4-41.1,53.4-61.4
			c6.1-7,12.9-13.4,19.4-20.2c-2.5-3.1-5.2-6.6-8.2-10.3c-17.3,13.6-33.3,28.9-47.5,46.3c3.6-10.5,7.6-20.7,12.1-30.6
			c4.5-10,9.4-19.7,14.3-29.8c-1.6-0.4-3.1-0.7-5.1-1.2c6.8-1,14.1-9.2,16-18.1c-6.2,0-12.7-2.5-17.3,4.2c-0.9,1.4-1.8,3.1-3.1,3.9
			c-3.1,1.9-2.5,3.9-0.6,6.1c2.9,3.4,2.7,5.3-1.5,6.2c-4.9,1.1-3.8,3.1-1.7,5.8c0.8,1,1.9,1.9,2.6,3.1c0.7,1.2,1.1,2.5,1.7,3.8
			c-1.3,0.6-2.6,1.3-4,1.6c-2.1,0.4-4.3,0.6-6.4,0.8c1.2-0.8,2.5-1.7,3.7-2.5c3.5-2.2,3-4.6,0.1-6.5c-1.2-0.8-3.7-1.2-4.8-0.4
			c-2,1.4-4.8,3.8-4.6,5.6c0.3,3.8-1.4,5.3-4,7.2c-1.3,1-1.7,3.3-2.8,5.7C8061.8,8213.8,8064.7,8211.7,8067.5,8209.5z
			 M8183.6,8226.5c-2.8,3.5-2.7,4.4-1,9.3c1,3,3,7.2,1.9,9.1c-3.4,5.5-0.6,9.8,0.2,14.6c1.6-1.3,3.5-3.1,3.8-2.9
			c2.3,2,4.4,4.3,7.3,7.3c-2.9,0.9-4.5,2.1-5.6,1.7c-6.8-2.5-7.3,2.1-8.5,6.8c-0.6,2.4-2.3,4.3-5.7,2.9c-1.8-0.7-4.5-0.9-6.1,0
			c-6.2,3.4-12,7.4-19.1,11.9c10.1,2.8,18.1,5.9,27.1,0.2c8.1-5.1,17.3-8.4,25.9-12.8c6-3.1,11.7-6.7,17.8-9.8
			c3.5-1.8,7.4-2.6,11-4.2c1.9-0.9,5.6-1,4-4.6c-0.2-0.5-3.8,0.4-5.8,0.9c-1.7,0.4-3.5,1.7-5.1,1.5c-8.6-0.9-15.4,2.7-21.7,7.9
			c-0.9,0.8-3.6,0.9-4.3,0.2c-1.2-1.2-2.1-3.4-2.1-5.1c0-1,2.1-2.3,3.5-2.8c1-0.4,2.4,0.3,5.3,0.7c-5.1-5.1-5.9-9.4-0.8-13.3
			c0.2-0.1,0.2-0.6,0.2-1c-0.5-8.9-1-17.8-1.4-25.9c-2.2-0.7-3.5-1.1-4.8-1.5c1.3-1.3,2.6-2.6,4.3-4.2c-0.8-10.8-1.6-22.2-2.5-33.7
			c-0.9-11.2-2.4-22.5-2.7-33.7c-0.1-3.7-1-5.2-5.3-5.5c6.8-1.9,4.4-6.5,4.2-9.8c-0.3-4.7-2.1-5.5-6.2-3.2c-2.7,1.5-4.8,2.5-8.3,1.2
			c-4.7-1.8-7.7,1.2-7.4,6.4c0.3,6.3,0.7,12.6,1.1,18.9c1.3,19.9,2.5,39.8,3.9,59.7c0.2,2.7,1.4,5.3,2.3,8.5
			C8181,8223.2,8180.7,8225,8183.6,8226.5z M7921.3,8184.9c-7.1,1.8-12.2,5.4-15.5,11.4c-0.6,1.1-1.5,2.2-2.1,3.3
			c-1,1.8-2.6,3.7-2.7,5.6c0,3.7,1.8,7.6,1.2,11c-2.5,13.5,1.7,26.1,2.8,38c3.9,1.6,6.8,2.7,9.9,3.9c1.4-1.1,2.9-2.8,4.8-3.8
			c1-0.5,3.6-0.2,3.9,0.3c1.1,2.9,2.8,6.3,2.1,9c-0.8,3.3-3.5,6.4-6,8.9c-0.4,0.4-4.1-2.3-6.2-3.6c-0.7-0.5-1.2-1.4-2.3-2.5
			c-0.8,1.6-2.1,3.1-1.7,3.8c2.4,4.7,5,9.2,7.8,13.6c0.4,0.6,2.9,0.8,3.4,0.2c2.1-2.5,5.8-4.5,3.6-8.9c-0.4-0.9-0.3-2.3,0-3.3
			c1.1-3.9,2.5-7.8,3.7-11.7c0.6-2.1,1.8-4.5,1.4-6.4c-0.7-3.1-2.6-5.9-3.5-7.8c-1.5,0.4-2.9,1.4-3.9,1.1c-5.9-2.1-6.4-3.8-4.4-12.7
			c1.9,0,3.8,0,5.5,0C7922.6,8217.9,7922,8201.8,7921.3,8184.9z M7944.2,8113.5c-0.5,0-0.9-0.1-1.4-0.1c-5.4,14.3-10.7,28.6-13.1,44
			c5,1.7,9.4,3.1,14.5,4.9C7944.2,8145.5,7944.2,8129.5,7944.2,8113.5z M7979.1,8212.6c-3.9-1.8-4.9-1.5-6.7,2.1
			c-2.6,5-5,10.1-7.7,15.1c-1.9,3.5-4.3,6.8-5.8,10.4c-0.7,1.7,0.2,4,0.4,6c1.9-0.2,4.8,0.2,5.4-0.8c3.9-5.8,9.1-11.7,10.2-18.1
			C7975.7,8222.2,7977.1,8217.6,7979.1,8212.6z M7949.6,8261c-1.8-2.4-3.3-4.5-4.8-6.6c-1.5,0.6-4.5,3.4-7.9,4
			c-4.5,0.7-6.1,3.5-7.2,6.8c-1.1,3.4-1.1,7.1-1.6,10.7c0.6,0.3,1.1,0.7,1.7,1C7937.4,8270.8,7944.9,8264.8,7949.6,8261z
			 M7968.6,8172.9c-4.4,1.1-8.2,2-12,3c-7.2,1.8-14.5,3.5-21.7,5.5c-1.1,0.3-2.5,1.8-2.7,2.9c-0.1,0.8,1.4,2.1,2.5,2.7
			c3.6,1.9,7,2.9,10-1.3c0.8-1.1,2.9-1.4,4.5-1.7c3.1-0.5,6.3-0.7,9.4-1.2C7963.7,8181.9,7967,8179,7968.6,8172.9z M8002.4,8291.2
			c-2.9-0.6-5-0.9-7-1.4c-2.7-0.7-6.3-2.4-7.4,1c-0.7,2.5,0.6,6.3,2.3,8.6c2.4,3.2,5.9,5.6,9,8.4
			C8004,8303,8002.8,8297,8002.4,8291.2z M8125.4,8211.4c4.7-4,8.8-7.4,13.1-11c-3.5-2.5-6.6-6.6-9.8-6.6c-3.6,0-7.2,3.6-11.5,6
			C8125.6,8203,8126.9,8205.5,8125.4,8211.4z M7984.9,8264.8c0.6,0.2,1.3,0.4,1.9,0.7c3.6-9.5,8.9-18.4,11-29.5
			c-14,6-16,8.8-12.9,16.9c1.6-2.5,3-4.9,4.5-7.3c0.4,0.3,0.9,0.5,1.3,0.8C7988.8,8252.5,7986.9,8258.7,7984.9,8264.8z
			 M7986.3,8196.3c0.7-2.2,2.3-4.6,2.1-6.8c-0.3-3.8,0.9-6.4,3.2-9.4c2.9-3.9,4.7-8.7,6.9-13.1c-1-0.8-2.1-1.6-3.1-2.5
			c-0.7,1.3-1.3,2.5-2.2,4c-3.5-1.9-6.8-1-6.9,2.9C7986.2,8179.7,7986.3,8188,7986.3,8196.3z M7984.5,8239.5c5-7.1,9.8-12.8,16.4-17
			c3.1-2,4.8-6.1,7.2-9.2C7995.7,8216.2,7983.8,8229.8,7984.5,8239.5z M7986.2,8309.9c0,4.3,0,9,0,14.1c4.3-3,7.8-5.2,10.9-7.9
			c1.3-1.1,2-3.1,2.9-4.7c-1.8-0.7-3.5-1.7-5.4-1.9C7992.3,8309.3,7989.8,8309.7,7986.2,8309.9z M8007,8224.6
			c-7.6,3-9.4,6.7-6.4,11.5C8002.9,8232.1,8004.9,8228.4,8007,8224.6z M7955.2,8253.6c0.3-3.3,0.5-5.8,0.7-8.2
			c-0.5-0.2-0.9-0.3-1.4-0.5c-1.5,1.6-3,3.3-4.6,5C7951.5,8251.1,7952.8,8252,7955.2,8253.6z M7998.6,8288.1
			c0.6-0.2,3.4-0.4,3.5-1.1c0.5-2.9,0.2-6,0.2-9c-0.2,0-0.5,0-0.7,0C8000.6,8281.3,7999.7,8284.5,7998.6,8288.1z M8034.7,8265.6
			c0.4,0.1,0.9,0.2,1.3,0.3c1.7-4.5,3.3-9,5-13.6c-0.4-0.1-0.7-0.3-1.1-0.4C8038.1,8256.5,8036.4,8261,8034.7,8265.6z"/>
		<path class="st0" d="M7631.3,8129.7c15.2-11.5,30.2-22.8,45.1-34.2c14.9-11.3,29.7-22.6,44.7-33.6c3-2.2,7-3.7,10.7-4.3
			c6.9-1.1,13.9-1.3,20.9-1.7c1.4-0.1,3.6,0.7,4.1,1.7c0.5,1.1-0.2,3.4-1.2,4.4c-3.2,3.1-6.6,6.1-10.3,8.6
			c-12.4,8.5-25,16.6-37.3,25.1c-1.9,1.3-3.6,4-3.9,6.2c-5.9,49.9-4.5,99.7,0.7,149.5c1.3,12.7,2.7,25.5,4.5,38.2
			c0.7,4.8-0.7,8.5-3.7,11.9c-4.1,4.6-8.2,9.2-12.5,13.6c-1.2,1.3-3.2,1.8-4.9,2.7c-0.8-1.6-2-3.1-2.3-4.7
			c-3.4-21.2-7.1-42.3-9.9-63.6c-4.3-33.5-6.5-67.3-6.3-101.1c0.1-8.1,0-16.2,0-24.2c-5.5,3.2-11.1,8.1-17.5,9.6
			c-6.3,1.5-13.4-0.5-20.7-1c0.7,5.2,1.4,10.4,2.1,15.7c1,6.9,0.5,7.4-6,9.8c-6.2,2.3-12.4,4.8-18.5,7.4c-4.2,1.8-5-0.8-5.5-3.9
			c-1.7-10.2-3.4-20.3-5.1-30.5c-0.1-0.8-0.3-1.6-0.6-2.7c-0.6,0.4-1.1,0.6-1.2,0.9c-3.6,9.8-5.3,19.9-4.5,30.4
			c0.7,9.4,5.7,15.4,14.2,19.4c8.7,4.2,17.3,8.7,25.1,14.2c14.9,10.6,20.8,26.8,25.1,43.6c4.5,17.6,4.1,35.3,1,53
			c-0.3,1.5-0.5,3-1.2,4.3c-4.9,8.9-9.4,18.2-15.1,26.6c-5,7.3-13.3,9.2-21.5,6.6c-30.6-9.6-51.9-29.5-63.9-59.3
			c-0.7-1.8-0.2-4.5,0.5-6.6c1-3.1,3-6,4.1-9.1c0.7-2,0.3-4.3,0.4-6.5c0.1-1.8-0.7-4,0.2-5.2c1.3-1.9,3.5-4.3,5.4-4.5
			c1.7-0.1,4.1,2.2,5.4,4.1c6.9,9.8,12.9,20.2,20.3,29.6c8.7,10.9,19.6,19.4,33.1,24c5,1.7,9.6,1.3,13.6-2.2c3.9-3.4,2.9-7.7,1.8-12
			c-4.6-18.9-13.3-36-24.5-51.6c-7.1-9.8-16.9-17.2-29-20.3c-14.5-3.8-21.7-13.1-23.2-27.7c-2.1-20.5-1.4-40.8,6.5-60
			c5.6-13.8,13.8-26.1,29.3-30.7c16-4.7,25.9,1.9,28.2,18.4C7629.3,8115.3,7630.3,8122.3,7631.3,8129.7z"/>
		<path class="st0" d="M7850.8,8292.6c2.8,4.7,1.3,8.4-2.4,11.9c-4.6,4.3-9,8.8-13.4,13.3c-2.9,2.9-4.5,0.3-6.1-1.4
			c-10.4-11-21-21.9-30.9-33.3c-15.2-17.5-29.8-35.4-44.7-53.1c-0.7-0.8-1.4-1.7-2.9-3.6c1.9,16.4,3.4,31.4,5.4,46.4
			c0.6,4.6-0.7,7.6-4.3,10.2c-3.9,2.8-7.6,5.9-11.4,8.8c-1.1,0.8-2.8,2.2-3.6,1.8c-1-0.4-1.9-2.3-2.1-3.6c-2.2-14-5.1-27.9-6.2-41.9
			c-3.2-39.1-5.7-78.3-8.6-117.5c-0.4-6.1,2-10.6,6.1-14.6c2.7-2.6,4.8-5.3,4.4-9.5c-0.2-1.6,0.9-3.5,1.9-4.9
			c9.3-13.9,20-17.5,36.2-12.9c29,8.3,46.2,46,27.5,73.5c-7.9,11.6-17.8,21-29.1,30c2.2,3,4.1,6,6.4,8.8
			c23.1,27.6,46.2,55.1,69.3,82.7c1,1.2,2.5,2.1,3.8,3.1C7847.6,8288.7,7849.2,8290.7,7850.8,8292.6z M7837,8282.3
			c-2.6-3.2-5.2-6.4-7.9-9.6c-6.3-7.5-6.3-7.5-10.1-7.3c5.8,2.5,5.5,6,3.3,10.1c-7-1-10.4-10.7-5.7-16.9c-1.8-2.1-3.7-4.3-5.6-6.6
			c-1.4,1.9-2.2,4-3.6,4.5c-1.7,0.6-4.4,0.4-5.8-0.6c-2.7-1.9-1.7-4.6-0.1-7.1c2.8-4.2,2-7.5-1.7-9.4c-3.6-1.8-6.9-4-9.1-5.3
			c-2.4,2.2-5,4.6-7.6,6.9c-6.1-5.9-7.2-10.3-4-13.7c2.7-2.9,5.9-2.6,10.3,0.9c-1.1-4.8-2.8-6.6-6.2-5.8c-6.1,1.5-12.1,3.5-19.1,5.5
			c4.8,4.2,3.1,7.7-0.3,11.1c3.7,4.5,7.1,8.8,10.6,13c1.4,1.7,2.8,3.3,4.4,4.8c1,0.9,2.4,1.9,3.6,1.8c6.1-0.6,10.1,3.2,9.4,9.1
			c-0.4,3.6,5.4,10,9.1,10.5c2.3,0.3,5.5,0.8,6.3,2.4c0.9,1.6-0.6,4.5-1.1,7.5c3.8,4.1,8.3,9,12,13c2.6-1.9,4.5-3.5,6.7-4.6
			c0.5-0.3,2.8,1.2,2.7,1.5c-0.8,3-1.9,5.9-3.2,9.6c2.1,2.3,5,5.4,9.1,9.8c1.1-4.7,1.9-8.1,2.5-10.8c1.2,0.3,3.3,1.6,4.1,1
			c3.2-2.3,6.2-5,8.7-8.1c0.8-1,0.2-3.9-0.7-5.2c-2-3-4.7-5.6-7.1-8.4C7839.7,8284.8,7838.3,8283.6,7837,8282.3z M7746.4,8184.2
			c0.5,0.5,1.1,0.9,1.6,1.4c10.1-7.7,20.3-15.4,30.3-23.3c1.1-0.9,2-3,1.8-4.3c-1.2-6.5-1.8-13.3-4.3-19.3
			c-5.2-12.7-21.3-23-33.2-22.1C7743.8,8139.2,7745.1,8161.7,7746.4,8184.2z M7748.3,8232.8c-5.5,1.6-10.6,2.9-15.5,4.7
			c-1.3,0.5-3,2.5-3,3.7c0.1,1.9-0.4,4.8,3.3,5.1c1.3,0.1,3.2,2.1,3.4,3.5c0.2,1.4-1.2,3.1-2.1,4.6c-0.7,1.2-2.7,2.2-2.6,3.1
			c1.5,10.8,3.3,21.5,5.2,33.4c5.2-7.7,6.7-16.7,15.7-20c-0.2-2.1-0.5-4.4-0.7-6.6c-0.5-0.3-1-0.6-1.5-0.9c-0.2,0.7-0.2,1.8-0.6,1.9
			c-2,0.8-4.2,2.1-6.1,1.7c-1.2-0.2-3-3.3-2.6-4.5c0.7-2,2.9-3.5,4.4-5.2c1.8-2,3.7-4,5.6-5.9c-0.4-0.4-0.8-0.8-1.2-1.1
			c-3.1,2.3-6.3,5.4-9.8,0.9c-2.3-3-0.6-7.9,3.3-10.5c1.6,1.1,3.3,2.3,6.3,4.3C7749.2,8240.2,7748.8,8236.9,7748.3,8232.8z"/>
		<path class="st0" d="M8251.2,8159.6c0,4.9,0,9.9,0,14.8c0,19.2-0.2,38.3-0.1,57.5c0,3.9-1.3,6.3-4.6,8c-5,2.7-9.9,5.4-14.9,8.1
			c-2.9,1.6-4.5,0.7-4.6-2.5c-0.2-5.7-0.2-11.3-0.3-17c-0.7-42.6-1.3-85.2-2-127.9c-0.1-3.5-0.2-7-0.3-10.5
			c-0.2-5.1,2.1-8.1,7.1-9.4c4.2-1.1,8.8-0.7,11.1-6.3c1.4-3.4,6.6-1.7,8.4,2.6c4.1,9.8,8,19.7,12,29.6
			c13.5,33.5,26.9,67,40.4,100.5c0.5,1.2,1.1,2.3,1.4,2.8c0-11.1,0.3-22.7-0.1-34.2c-0.8-30.3-1.9-60.6-2.9-90.8
			c-0.3-9.3-0.4-18.6-1-27.9c-0.3-4.4,1.4-6.6,5.6-7.1c2-0.2,3.9-0.7,5.9-0.9c2.7-0.2,4.3-1.3,4.2-4.3c-0.2-3.2,1.3-5.2,4.7-5
			c3.5,0.1,4.9,2.3,5.1,5.6c1.4,22.4,4,44.8,4.1,67.3c0.2,50.9-0.9,101.9-1.4,152.8c0,5.1-1.8,8.9-6.1,11.8
			c-3.2,2.1-6.2,4.5-9.2,6.9c-4.8,3.7-5.9,3.4-8.3-2.2c-11.9-27.3-23.7-54.6-35.5-82c-5.8-13.4-11.6-26.8-17.5-40.2
			C8252,8159.5,8251.6,8159.5,8251.2,8159.6z M8248.5,8227.1c0-7.2,0-14.5,0-22.4c-2.6,9.1-4.9,11.4-11.2,12
			c-1.6-2.1-2.8-4.1-4.5-5.6c-0.4-0.4-2.2,0.7-3.8,1.3c6.5,4.5,6.5,4.9,1.4,10c-0.5,0.5-0.9,1.4-1,2.1c-0.1,4.7,0,9.5,0,13.4
			c4.1,0.8,7.3,1.5,10.6,2.1c0.7,0.1,1.6-0.3,2.4-0.6C8248.1,8236.9,8248.8,8235.5,8248.5,8227.1L8248.5,8227.1z M8259.1,8159.2
			c-0.5-0.3-1-0.6-1.5-0.9c1.2-7.7,2.4-15.4,3.9-24.3c4.5,2.9,7.5,4.8,10.6,6.8c0.5-0.5,1-1,1.6-1.5c-2-3.2-4-6.3-6-9.5
			c-0.5,0.3-0.9,0.6-1.4,0.9c0.5,0.8,1,1.6,1.4,2.4c-0.4,0.3-0.9,0.7-1.3,1c-1.5-1.8-2.9-3.6-4.9-6c2.7-1,4.4-1.7,6.2-2.4
			c-0.4-1.2-0.7-2.1-1.1-3c-2.8-7.1-2.8-7-10.5-5.9c-7.7,1.1-15.5,2-23.2,3.4c-1.9,0.3-4.7,1.7-5.2,3.1c-0.5,1.7,1.1,4.1,2,6.9
			c-5.9,6.3-1.5,12.4,3.8,19c-6.2-0.8-5.9,2.1-4.2,5.6c0.8,1.6,2,3.1,2.6,4.8c1.2,3,3.2,6.5-0.1,9.2c-3.5,2.8-3.5,6.4-3.4,10.2
			c0.1,4.8-0.2,9.7,0.1,14.5c0.3,4.3,1.1,8.6,1.6,12.8c6.6-3.1,12.4-5.9,18.2-8.6c-1.6-1.1-3.4-1-5.3-1.2c-1.3-0.1-2.8-0.4-3.9-1.1
			c-0.5-0.3-0.7-2.4-0.5-2.5c1.1-0.5,2.4-0.9,3.7-1c1.1,0,2.2,0.4,4.1,0.9c-1.2-1.5-2-2.4-3.2-3.9c6.4-2.1,5.5-7.1,5.5-11.8
			c-0.1-7.8-0.1-15.6-0.1-23.5c0-1.6,0.3-3.3,0.5-4.9c0.5,0,0.9-0.1,1.4-0.1c3.1,6.6,6.1,13.3,9.2,19.9c0.9-9.7,0.5-8.8,9.5-12
			c-1.1-1.4-2.2-2.8-3.9-4.9C8263,8154.5,8261.1,8156.9,8259.1,8159.2z M8323.8,8209c-3.2,1.8-7.1-1.2-11.8,2.1
			c-5.4,3.8-1.8,8.4-4.2,11.8c-3.8-0.3-1.9-8.1-8.9-5.8c5.3,2.2,2.4,4.5,0.8,5.7c-1,0.8-3.4-0.2-5.1-0.3c0.5-0.4,1-0.9,1.5-1.3
			c-0.2-2.9-0.4-5.9-0.5-8.4c-3.3,3-5.7,6.5-9,7.8c-4.2,1.7-3.3,3.7-2.1,6.5c7.7,17.7,15.3,35.4,23,53c0.4,1,1.1,1.9,1.9,3.3
			c3.6-2.6,6.8-5.2,10.3-7.4c5.3-3.3,6.9-8,6.9-13.9c0.1-7.4,0.7-14.9,0.9-22.3c0.2-6.7,0-13.3,0-20.2c-2.3,0-4.1,0-6.3,0
			C8322.2,8215.8,8323,8212.4,8323.8,8209z M8322.1,8143c2.2-2.7,5.9-5.2,6.1-7.8c0.6-7.9-0.1-15.9-0.7-23.9c-0.1-1-2.3-2.6-3.5-2.5
			c-5.4,0.3-10.7,1.1-16,1.8c-0.7,0.1-2,0.8-2,1.2c0.1,5.4,0.3,10.7,0.6,16.1c0,0.3,1.4,0.5,2,0.7c0.5-1.7,1-3.2,1.4-4.7
			c0.4,0.1,0.8,0.2,1.1,0.2c0.4,1.6,0.9,3.2,1.3,4.8c0.9-5.6,4.9-2.7,6.8-2.4c5.8,1,2.1,7,4.3,8.9c-3.3,2.4-6.4,4.6-10.7,7.7
			c4.4,1.1,7.2,1.8,11.1,2.9C8322.8,8144,8322.2,8143.1,8322.1,8143z M8263.2,8176.8c1.4,3.6,0.9,7.3,5.2,7c1.7-0.1,3.3-1,5-1.6
			c-0.2-0.4-0.5-0.8-0.7-1.2C8269.9,8179.7,8267,8178.5,8263.2,8176.8z M8262.6,8164.8c1.4,3,1.8,4.6,2.8,5.8c0.9,1,2.4,1.5,3.7,2
			c0.2,0.1,0.8-0.8,1.3-1.3c-1-0.9-2.1-1.7-3-2.7c-0.2-0.2-0.1-0.6-0.2-1.1c1.6-0.4,3.2-0.7,4.8-1.1c0-0.4-0.1-0.8-0.1-1.1
			C8269.3,8165.1,8266.6,8165,8262.6,8164.8z M8268.1,8141.6c-1.7,2.2-2.9,3.8-4.1,5.4c1.1,1.2,2,2.2,2.9,3.2c0.4,0,0.8-0.1,1.2-0.1
			C8268.1,8147.5,8268.1,8145,8268.1,8141.6z"/>
		<path class="st0" d="M7850.8,8292.6c-1.6-2-3.2-3.9-4.8-5.9c-16.6-28.1-24.1-59.3-31.1-90.7c-4.7-21-6.9-42.3-6-63.9
			c0.6-15.5,6.2-28.4,18.1-38.5c2-1.7,4.3-3.7,6.7-4.1c6.6-0.9,11.5-4.1,16.3-8.5c6.8-6.2,14-5.9,21,0.3
			c9.1,7.9,15.1,18.1,16.7,29.9c1.9,14.3,2.8,28.8,3.2,43.2c0.3,8.4-7.5,16.2-16.3,17.7c-10.5,1.8-21,3.1-32.5,4.8
			c1.9,10.5,3.7,21.2,5.9,31.9c2.4,11.4,4.8,22.8,8.3,33.9c2,6.3,6.1,11.9,9.3,17.8c0.7-0.2,1.5-0.3,2.2-0.5c1-4.9,2.6-9.8,2.8-14.7
			c0.6-13.8,1.6-27.7,0.5-41.4c-0.8-9.4,2.2-15.4,9.6-19.9c3.3-2,4.1-4.3,3.6-7.8c-0.4-3-0.4-6.2,3.9-6.7c5-0.5,6.8,0.8,7.1,5.7
			c1.9,26.9-2.7,53-9.5,78.9c-3.1,11.8-6.9,23-16.7,31.1c-0.4,0.3-0.6,0.8-0.9,1.2C7863,8295.2,7860.1,8296.2,7850.8,8292.6z
			 M7874.4,8205.1c0,8.2,0.5,15.4-0.1,22.5c-0.9,10.7-2.3,21.4-4,32c-0.7,4.5-3.4,5.3-5.8,1.6c-5.1-7.6-9.8-15.6-13.4-24
			c-2.4-5.6-2.3-12.2-3.5-18.3c-0.9-4.5-2.1-8.9-3.3-13.6c-6.9,1.9-13.2,3.7-19.4,5.3c-3,0.8-3.9,2.1-2.9,5.4
			c2.9,9.5,5.5,19.1,8,27.8c3.6-0.6,6.7-1.1,10.7-1.7c-0.8,2-0.9,2.7-1.3,3.2c-2.1,2.7-5.9,5.2-0.8,8.6c0.4,0.3,0.3,2.3-0.2,2.7
			c-4.2,2.9-1.6,6.1-0.3,9c2,4.6,3.9,9.2,6.5,13.5c1.3,2.2,3.7,3.7,5.8,5.6c0.5,1.5,0.7,4.6,2.1,5.2c2.8,1.2,6.4,1.8,9.2,1
			c1.9-0.5,3-3.8,4.4-5.9c0.7-1.5,2.6-2.2,3.5-3.6c3.9-5.9,8.8-11.6,10.8-18.1c4.2-13.6,7.3-27.5,10-41.5c1.8-9.4,2.1-19,3.1-29.4
			c-3.5,0.9-5.8,1.5-8.5,2.1c3.7,3.8,4.3,7.6,1.4,11.3C7883,8209.8,7879.1,8208.3,7874.4,8205.1z M7859.4,8157.1
			c-3.7-17.7-7.3-34.6-10.8-51.5c-0.6,0.1-1.1,0.1-1.7,0.2c-7,17.4-6.1,35.6-5.6,54.5C7847.4,8159.3,7852.9,8158.3,7859.4,8157.1z"
			/>
		<path class="st0" d="M8363.7,8160.9c-0.7,14.2-1.9,27.8-1.9,41.4c0,11.8,0.7,23.7,2.5,35.3c2,13,4.9,13.9,16,7.2
			c11-6.6,18.7-16.2,25.2-27.2c2.3-3.9,6.1-6.8,9-10.3c2-2.4,3.6-5,5.2-7.7c1.8-3.1,3.7-6,7.8-4c4,2,3.1,5.4,1.7,8.6
			c-6.7,15.5-17.1,28.6-29.1,40.3c-9.5,9.2-19.7,18-30.6,25.5c-13.1,9-20,6.5-24-8.9c-3.6-13.8-6.2-28-7.2-42.2
			c-2.4-32.6-1.7-65.3,5.8-97.4c2.4-10.2,6.9-20,11.1-29.8c2.4-5.6,7.2-8.7,13.6-9.7c3.4-0.5,6.7-2.7,9.6-4.6
			c5.2-3.5,8.8-3.8,13.6,0.2c2.6,2.2,5.2,4.8,7,7.7c13,21,18.1,43.9,15,68.3c-1.5,12.2-6.6,14-18.6,15.4
			C8383.6,8170.5,8374.6,8164.9,8363.7,8160.9z M8361.9,8157.5c1.8,0.5,3.2,0.7,4.5,1.3c9,3.9,17.4,10.1,28.2,7c0.3-0.1,0.7,0,1,0.1
			c9.6,1,14-1.9,15.7-11c3.2-17-0.3-33.4-5.5-49.5c-0.3-0.9-1.5-2.2-2.2-2.2c-7.4,0.1-14.8,0.5-23.2,0.9c6.5,15.6,9.5,30.8,9.4,47.5
			c-7.5-3-14.2-5.7-20.9-8.4c-0.1,0.4-0.3,0.7-0.4,1.1c1.6,1.1,3.2,2.2,5.3,3.6c-2.3,0.3-3.9,0.4-5.3,0.7c-1.7,0.4-3.4,1-5.9,1.8
			c0.7-16,4.6-30.6,8.9-45.6c-5.7,0.4-10.7,0.9-15.6,1.1c-3.8,0.1-5.7,1.8-6.5,5.4c-2,9.4-4,18.7-6,28.1c-0.8,4-1.8,7.9,4.1,9
			c1,0.2,1.7,1.7,2.5,2.5c-2.5,2.1-7-0.4-8.5,3.7c5,1.3,9.3,2.4,12.7,3.3c1.3,3,2.4,5.3,2.9,6.4c-2,3.8-3.7,6.7-5.7,10.5
			C8361.8,8172.4,8360.9,8164.6,8361.9,8157.5z M8387.2,8147.3c-0.8-16.2-3.5-31-10.8-44.7c-0.6,0-1.1,0-1.7,0
			c-3,12.5-6.1,24.9-8.9,36.5C8373.4,8142,8379.8,8144.4,8387.2,8147.3z M8341.8,8229.1c0.5,0.4,1,0.7,1.5,1.1
			c2.3-2.4,5.8-4.4,6.7-7.2c1.2-3.9,4-8,1.7-12.6c0-0.1,1.8-1.7,2.7-1.6c1.1,0.1,2.1,1.2,3.2,1.9c2.3-5.5-3.9-15.8-10.7-21.1
			c-2.3,3-7.2,3.3-6.9,9.1c0.4,6.1,7.3,3.5,8.1,7c-0.1,2.5-0.2,4.3-0.3,6.5c-0.7,0.3-2,1-2.9,1.4c-1.4-1.1-2.5-1.9-4.8-3.8
			C8340.8,8217.4,8341.3,8223.2,8341.8,8229.1z M8410.7,8227.3c4.8-5.5,12-10.2,8.3-21c-5,5.8-9.4,10.9-13.8,16
			C8407.6,8224.5,8409.2,8225.9,8410.7,8227.3z M8357.9,8181.3c-2.6,1.7-5.2,3.4-8.1,5.3c2.5,3.1,5.3,6.7,9.1,11.5
			c0.5-9.1,0.9-16.9,1.3-24.9C8355.2,8174.6,8354.5,8177.6,8357.9,8181.3z M8407.2,8231.3c-3.4,2-7.6,4.3-11.7,6.7
			c0.1,0.7,0.3,1.4,0.4,2.1c1.6,0,3.9,0.7,4.6-0.1C8403.2,8237.1,8405.3,8233.8,8407.2,8231.3z M8358.7,8264.5
			c-0.2-3-0.5-5.7-0.7-8.5c-1.8,0-3.6,0-6.4,0C8355.6,8258.4,8351.8,8265.4,8358.7,8264.5z M8379.7,8259.1c-0.3-1-0.7-2.2-1.1-3.6
			c-2.2,1.2-4.2,2.2-6.1,3.2c0.7,1.2,1.4,2.3,1.5,2.6C8376.1,8260.4,8377.8,8259.8,8379.7,8259.1z"/>
		<path class="st0" d="M8068.3,8162.7c-18.8,31.7-35.7,63.7-48.4,98.3c-1.7-10.7,8.2-100.8,12.8-117.1c1.2,2.5,2.1,4.8,3.4,6.8
			c3,4.8,7.5,7.3,13.1,8.2C8055.3,8160.1,8061.4,8161.4,8068.3,8162.7z"/>
		<path class="st0" d="M7646.8,8147.3c3.7,0,6.6,0,9.8,0c0.6,18.6,1.1,36.9,1.7,56.3c-8.5-13.3-19.4-22.9-33.9-30.7
			C7639,8169.5,7650.2,8164.2,7646.8,8147.3z"/>
		<path class="st0" d="M7937.3,8205c11.3-3.4,21.7-6.5,32.1-9.6c0.3,0.4,0.7,0.9,1,1.3c-10.8,4-12.5,14.5-17.5,22.7
			c-3.7,6-7.7,11.8-11.6,17.7c-0.7-0.2-1.4-0.4-2.1-0.6C7938.6,8225.8,7937.9,8215.2,7937.3,8205z"/>
		<path class="st0" d="M8106.1,8104.2c-6.9,10.3-13.8,20.5-21.1,31.5c-2.9-7.6-5.4-14.5-8.3-22.1c9.5-3.4,19.1-6.9,28.7-10.4
			C8105.6,8103.6,8105.9,8103.9,8106.1,8104.2z"/>
		<path class="st0" d="M7784.7,8195.2c5-4.8,9.6-9.3,14-13.6c2.6,12.7,5.4,26,8.2,39.4c-0.3,0.2-0.6,0.5-0.9,0.7
			C7798.8,8212.7,7791.5,8203.7,7784.7,8195.2z"/>
		<path class="st0" d="M8211.2,8088.4c0,6.5,0,13,0,19.4c-0.5-6.4-1.1-12.9-1.7-19.4C8210.1,8088.4,8210.7,8088.4,8211.2,8088.4z"/>
		<path d="M8183.6,8226.5c-2.9-1.6-2.6-3.3-0.8-4.4c-0.9-3.2-2.2-5.8-2.3-8.5c-1.4-19.9-2.7-39.8-3.9-59.7
			c-0.4-6.3-0.8-12.6-1.1-18.9c-0.2-5.2,2.8-8.2,7.4-6.4c3.5,1.3,5.6,0.2,8.3-1.2c4.1-2.3,6-1.4,6.2,3.2c0.2,3.4,2.6,7.9-4.2,9.8
			c4.3,0.3,5.2,1.8,5.3,5.5c0.4,11.3,1.8,22.5,2.7,33.7c0.9,11.4,1.7,22.8,2.5,33.7c-1.7,1.7-3,3-4.3,4.2c1.3,0.4,2.5,0.8,4.8,1.5
			c0.5,8.1,1,17,1.4,25.9c0,0.3,0,0.8-0.2,1c-5.1,3.9-4.3,8.2,0.8,13.3c-2.9-0.5-4.3-1.1-5.3-0.7c-1.4,0.5-3.5,1.8-3.5,2.8
			c-0.1,1.7,0.8,3.9,2.1,5.1c0.7,0.7,3.4,0.5,4.3-0.2c6.3-5.2,13.1-8.8,21.7-7.9c1.6,0.2,3.4-1.1,5.1-1.5c2-0.5,5.6-1.3,5.8-0.9
			c1.6,3.6-2.1,3.8-4,4.6c-3.6,1.6-7.5,2.5-11,4.2c-6,3-11.8,6.7-17.8,9.8c-8.6,4.4-17.8,7.7-25.9,12.8c-8.9,5.6-17,2.6-27.1-0.2
			c7.1-4.5,13-8.4,19.1-11.9c1.6-0.9,4.3-0.7,6.1,0c3.4,1.4,5.1-0.5,5.7-2.9c1.2-4.7,1.7-9.3,8.5-6.8c1.1,0.4,2.7-0.8,5.6-1.7
			c-2.9-3-5-5.3-7.3-7.3c-0.2-0.2-2.2,1.7-3.8,2.9c-0.8-4.8-3.6-9.1-0.2-14.6c1.2-1.9-0.8-6.1-1.9-9.1
			C8180.9,8230.9,8180.9,8230,8183.6,8226.5z M8185.4,8233.6c-0.4,0.6-0.9,1.2-1.3,1.8c1,1.8,1.6,3.9,3,5.3c0.5,0.5,3.3-0.6,4.1-1.7
			c0.8-1,0.8-4.1,0.3-4.3C8189.7,8233.9,8187.5,8233.9,8185.4,8233.6z M8198.5,8244.1c-1.6-1-2.9-2.3-3.4-2.1
			c-1.1,0.5-2.1,1.7-2.6,2.9c-0.2,0.4,1.7,2.2,2.3,2.1C8195.9,8246.7,8196.8,8245.5,8198.5,8244.1z"/>
		<path d="M8070.2,8207.8c2.1-0.3,4.3-0.4,6.4-0.8c1.4-0.3,2.6-1.1,4-1.6c-0.5-1.3-1-2.6-1.7-3.8c-0.7-1.1-1.7-2-2.6-3.1
			c-2.1-2.7-3.2-4.7,1.7-5.8c4.2-0.9,4.4-2.8,1.5-6.2c-1.9-2.2-2.5-4.2,0.6-6.1c1.3-0.8,2.2-2.5,3.1-3.9c4.6-6.7,11-4.2,17.3-4.2
			c-2,8.9-9.2,17.2-16,18.1c2,0.5,3.4,0.8,5.1,1.2c-4.9,10.1-9.9,19.9-14.3,29.8c-4.5,9.9-8.5,20.1-12.1,30.6
			c14.2-17.4,30.2-32.7,47.5-46.3c3,3.7,5.7,7.2,8.2,10.3c-6.5,6.8-13.3,13.2-19.4,20.2c-17.9,20.3-35.8,40.8-53.4,61.4
			c-3.3,3.8-6.2,5-10.7,3c-3.3-1.5-6.6-2.6-10.4-5.3c3.6-1.8,7.2-3.6,10.7-5.4c-0.1-0.2-0.1-0.5-0.2-0.7c-2.6,0.5-5.3,1-9.2,1.8
			c2.3-7.5,4.5-14.4,6.8-21.9c3,7.8,6.4,9,10.4,4.2c0.7-0.8,1.4-2.3,1.1-3.1c-4.4-11,1.2-20.9,3.3-31.2c1-5,2.6-9.9,4.5-14.6
			c0.7-1.7,3-2.8,4.6-4.2c0.9,2.1,1.8,4.2,2.7,6.3c0.2,0.4,0,0.9,0.4,1.5c2.4-6.3,0.3-14.4,7.4-18.7
			C8068.4,8208.9,8069.3,8208.4,8070.2,8207.8z"/>
		<path d="M7921.3,8184.9c0.6,16.9,1.3,33,1.9,49.4c-1.8,0-3.6,0-5.5,0c-2,8.9-1.5,10.7,4.4,12.7c1,0.3,2.4-0.6,3.9-1.1
			c0.9,1.9,2.8,4.7,3.5,7.8c0.5,1.9-0.7,4.3-1.4,6.4c-1.2,3.9-2.5,7.8-3.7,11.7c-0.3,1-0.5,2.4,0,3.3c2.2,4.4-1.5,6.4-3.6,8.9
			c-0.5,0.5-3,0.4-3.4-0.2c-2.8-4.4-5.4-9-7.8-13.6c-0.3-0.7,1-2.2,1.7-3.8c1,1.2,1.5,2.1,2.3,2.5c2.1,1.4,5.7,4.1,6.2,3.6
			c2.5-2.5,5.2-5.6,6-8.9c0.7-2.7-1-6.1-2.1-9c-0.2-0.6-2.8-0.8-3.9-0.3c-1.9,1-3.4,2.6-4.8,3.8c-3.2-1.2-6-2.4-9.9-3.9
			c-1.1-11.9-5.4-24.5-2.8-38c0.7-3.5-1.2-7.4-1.2-11c0-1.9,1.7-3.8,2.7-5.6c0.6-1.1,1.4-2.2,2.1-3.3
			C7909.2,8190.3,7914.3,8186.7,7921.3,8184.9z"/>
		<path d="M7944.2,8113.5c0,16,0,32.1,0,48.8c-5.1-1.7-9.5-3.2-14.5-4.9c2.5-15.4,7.7-29.7,13.1-44
			C7943.3,8113.4,7943.8,8113.4,7944.2,8113.5z"/>
		<path d="M7979.1,8212.6c-2,5-3.4,9.6-4.2,14.7c-1,6.4-6.3,12.3-10.2,18.1c-0.7,1-3.6,0.6-5.4,0.8c-0.2-2-1.1-4.4-0.4-6
			c1.5-3.6,4-6.9,5.8-10.4c2.6-5,5.1-10.1,7.7-15.1C7974.2,8211.2,7975.2,8210.9,7979.1,8212.6z"/>
		<path d="M7949.6,8261c-4.7,3.8-12.2,9.8-19.8,15.8c-0.6-0.3-1.1-0.6-1.7-1c0.5-3.6,0.5-7.3,1.6-10.7c1-3.3,2.7-6.1,7.2-6.8
			c3.4-0.5,6.3-3.4,7.9-4C7946.3,8256.5,7947.9,8258.6,7949.6,8261z"/>
		<path d="M7968.6,8172.9c-1.6,6.1-4.9,9-10.1,9.8c-3.1,0.5-6.3,0.6-9.4,1.2c-1.6,0.3-3.7,0.6-4.5,1.7c-3,4.3-6.4,3.2-10,1.3
			c-1.1-0.6-2.6-2-2.5-2.7c0.2-1.1,1.5-2.6,2.7-2.9c7.2-2,14.5-3.7,21.7-5.5C7960.3,8174.9,7964.1,8174,7968.6,8172.9z"/>
		<path d="M8003,8183.3c1.6-0.3,3.1-0.6,4.7-1c0.3,0.3,0.7,0.6,1,1c-3.7,5.3-7.6,10.6-11.1,16c-1.6,2.4-3.3,5.3-3.5,8
			c-0.3,6.3-5.7,8.1-9.3,13.2c-0.3-2.7-0.8-4.1-0.4-5.2c3.1-8.4,5.1-17.3,13.2-23.1c2.7-1.9,3.8-6,5.6-9.1
			C8003.2,8183.2,8003,8183.3,8003,8183.3z"/>
		<path d="M8002.4,8291.2c0.4,5.8,1.6,11.8-3.1,16.5c-3.1-2.8-6.6-5.2-9-8.4c-1.7-2.3-3-6.1-2.3-8.6c1-3.4,4.7-1.7,7.4-1
			C7997.4,8290.3,7999.4,8290.6,8002.4,8291.2z"/>
		<path d="M8125.4,8211.4c1.5-5.9,0.2-8.4-8.2-11.6c4.3-2.4,7.9-6,11.5-6c3.2,0,6.3,4.1,9.8,6.6
			C8134.1,8204,8130.1,8207.4,8125.4,8211.4z"/>
		<path d="M7984.9,8264.8c2-6.1,3.9-12.3,5.9-18.4c-0.4-0.3-0.9-0.5-1.3-0.8c-1.5,2.4-3,4.8-4.5,7.3c-3.1-8.1-1.1-10.9,12.9-16.9
			c-2.1,11.1-7.4,20-11,29.5C7986.2,8265.3,7985.5,8265,7984.9,8264.8z"/>
		<path d="M7986.3,8196.3c0-8.3-0.2-16.6,0.1-24.8c0.1-3.9,3.3-4.8,6.9-2.9c0.8-1.5,1.5-2.8,2.2-4c1,0.8,2.1,1.6,3.1,2.5
			c-2.3,4.4-4,9.1-6.9,13.1c-2.2,3-3.5,5.6-3.2,9.4C7988.7,8191.7,7987.1,8194.1,7986.3,8196.3z"/>
		<path d="M7984.5,8239.5c-0.7-9.7,11.2-23.3,23.5-26.2c-2.4,3.1-4.1,7.2-7.2,9.2C7994.3,8226.7,7989.5,8232.4,7984.5,8239.5z"/>
		<path d="M7986.2,8309.9c3.6-0.2,6.1-0.6,8.5-0.4c1.8,0.2,3.6,1.2,5.4,1.9c-1,1.6-1.6,3.6-2.9,4.7c-3.2,2.6-6.7,4.8-10.9,7.9
			C7986.2,8318.8,7986.2,8314.2,7986.2,8309.9z"/>
		<path d="M8070.2,8207.8c-0.9,0.6-1.8,1.2-2.7,1.7c-2.8,2.2-5.7,4.3-9.6,7.3c1.1-2.3,1.4-4.7,2.8-5.7c2.5-1.9,4.2-3.4,4-7.2
			c-0.1-1.8,2.7-4.2,4.6-5.6c1-0.7,3.5-0.4,4.8,0.4c2.9,1.9,3.5,4.4-0.1,6.5C8072.7,8206.1,8071.4,8206.9,8070.2,8207.8z"/>
		<path d="M8003,8183.3c0,0,0.2-0.2,0.2-0.2c-0.4-0.8-1.3-2-1-2.5c3.1-5,6.5-9.9,10.9-14.4c-0.7,2.4-1,5.1-2.3,7.1
			C8008.6,8176.9,8005.7,8180,8003,8183.3z"/>
		<path d="M8007,8224.6c-2.1,3.7-4.1,7.4-6.4,11.5C7997.6,8231.4,7999.4,8227.6,8007,8224.6z"/>
		<path d="M7955.2,8253.6c-2.4-1.6-3.7-2.5-5.3-3.6c1.6-1.8,3.1-3.4,4.6-5c0.5,0.2,0.9,0.3,1.4,0.5
			C7955.7,8247.8,7955.5,8250.2,7955.2,8253.6z"/>
		<path d="M7998.6,8288.1c1.1-3.7,2.1-6.9,3-10c0.2,0,0.5,0,0.7,0c0,3,0.3,6.1-0.2,9C8002,8287.7,7999.2,8288,7998.6,8288.1z"/>
		<path d="M8034.7,8265.6c1.7-4.5,3.5-9.1,5.2-13.6c0.4,0.1,0.7,0.3,1.1,0.4c-1.7,4.5-3.3,9-5,13.6
			C8035.6,8265.8,8035.1,8265.7,8034.7,8265.6z"/>
		<path d="M7841.1,8286c2.4,2.8,5,5.4,7.1,8.4c0.9,1.4,1.5,4.3,0.7,5.2c-2.5,3.1-5.5,5.7-8.7,8.1c-0.8,0.6-2.9-0.7-4.1-1
			c-0.6,2.8-1.4,6.1-2.5,10.8c-4.1-4.4-7-7.5-9.1-9.8c1.3-3.7,2.4-6.6,3.2-9.6c0.1-0.3-2.2-1.8-2.7-1.5c-2.2,1.1-4.1,2.7-6.7,4.6
			c-3.7-4-8.2-8.8-12-13c0.6-3,2-5.9,1.1-7.5c-0.8-1.5-4.1-2.1-6.3-2.4c-3.7-0.5-9.6-6.8-9.1-10.5c0.7-6-3.3-9.7-9.4-9.1
			c-1.1,0.1-2.6-1-3.6-1.8c-1.6-1.4-3-3.1-4.4-4.8c-3.5-4.2-6.9-8.5-10.6-13c3.5-3.4,5.1-6.9,0.3-11.1c7-2.1,13-4,19.1-5.5
			c3.4-0.8,5.1,1,6.2,5.8c-4.4-3.6-7.6-3.9-10.3-0.9c-3.1,3.4-2,7.8,4,13.7c2.6-2.4,5.2-4.7,7.6-6.9c2.2,1.3,5.5,3.5,9.1,5.3
			c3.7,1.9,4.5,5.2,1.7,9.4c-1.6,2.5-2.6,5.1,0.1,7.1c1.4,1,4.1,1.2,5.8,0.6c1.4-0.5,2.2-2.7,3.6-4.5c1.9,2.3,3.8,4.5,5.6,6.6
			c-4.7,6.1-1.3,15.8,5.7,16.9c2.2-4,2.5-7.6-3.3-10.1c3.8-0.2,3.8-0.2,10.1,7.3c2.7,3.2,5.3,6.4,7.9,9.6c-1.5-0.8-3-1.6-4.5-2.4
			c-0.6,1.6-1.4,3.1-1.6,4.8c-0.4,2.4-0.9,5-0.4,7.4c0.4,1.8,1.9,4.3,3.3,4.7c1.4,0.4,4.1-1.2,5-2.6
			C7840.1,8291.7,7840.3,8288.7,7841.1,8286z"/>
		<path d="M7746.4,8184.2c-1.3-22.5-2.6-45-3.9-67.5c11.9-0.9,28,9.4,33.2,22.1c2.5,6,3.2,12.8,4.3,19.3c0.2,1.3-0.7,3.4-1.8,4.3
			c-10,7.9-20.2,15.5-30.3,23.3C7747.4,8185.1,7746.9,8184.6,7746.4,8184.2z M7756.7,8136.4c0.5,8.3,1,16.6,1.5,25
			c0.4,0.2,0.9,0.4,1.3,0.6c2.5-2.7,7-5.3,7-8.1C7766.7,8146.9,7763.6,8140.5,7756.7,8136.4z"/>
		<path d="M7748.3,8232.8c0.5,4.1,0.9,7.4,1.5,12.3c-3-2.1-4.6-3.2-6.3-4.3c-3.9,2.6-5.6,7.5-3.3,10.5c3.5,4.5,6.6,1.5,9.8-0.9
			c0.4,0.4,0.8,0.8,1.2,1.1c-1.9,2-3.7,3.9-5.6,5.9c-1.6,1.7-3.7,3.2-4.4,5.2c-0.4,1.2,1.4,4.3,2.6,4.5c1.9,0.3,4.1-0.9,6.1-1.7
			c0.4-0.2,0.4-1.3,0.6-1.9c0.5,0.3,1,0.6,1.5,0.9c0.2,2.2,0.5,4.4,0.7,6.6c-9,3.3-10.5,12.3-15.7,20c-1.9-12-3.7-22.7-5.2-33.4
			c-0.1-0.9,1.9-2,2.6-3.1c0.9-1.4,2.3-3.2,2.1-4.6c-0.2-1.4-2.1-3.3-3.4-3.5c-3.7-0.3-3.2-3.2-3.3-5.1c0-1.2,1.6-3.2,3-3.7
			C7737.7,8235.7,7742.8,8234.4,7748.3,8232.8z"/>
		<path class="st0" d="M7841.1,8286c-0.7,2.7-1,5.6-2.3,8c-0.8,1.5-3.6,3-5,2.6c-1.5-0.4-3-2.9-3.3-4.7c-0.5-2.3,0-4.9,0.4-7.4
			c0.3-1.6,1.1-3.2,1.6-4.8c1.5,0.8,3,1.6,4.5,2.4C7838.3,8283.6,7839.7,8284.8,7841.1,8286z"/>
		<path d="M8259.1,8159.2c2-2.4,3.9-4.8,6.2-7.5c1.7,2.1,2.8,3.5,3.9,4.9c-9,3.2-8.6,2.3-9.5,12c-3.1-6.6-6.1-13.3-9.2-19.9
			c-0.5,0-0.9,0.1-1.4,0.1c-0.2,1.6-0.5,3.3-0.5,4.9c0,7.8,0,15.6,0.1,23.5c0,4.7,0.9,9.6-5.5,11.8c1.2,1.5,1.9,2.4,3.2,3.9
			c-1.9-0.4-3-0.9-4.1-0.9c-1.3,0-2.5,0.4-3.7,1c-0.2,0.1,0,2.2,0.5,2.5c1.1,0.7,2.6,0.9,3.9,1.1c1.8,0.2,3.7,0.1,5.3,1.2
			c-5.8,2.8-11.6,5.5-18.2,8.6c-0.6-4.2-1.4-8.5-1.6-12.8c-0.3-4.8,0-9.7-0.1-14.5c-0.1-3.8-0.1-7.4,3.4-10.2
			c3.3-2.7,1.4-6.1,0.1-9.2c-0.7-1.7-1.9-3.1-2.6-4.8c-1.7-3.5-1.9-6.3,4.2-5.6c-5.3-6.6-9.7-12.7-3.8-19c-0.9-2.8-2.5-5.2-2-6.9
			c0.5-1.5,3.3-2.8,5.2-3.1c7.7-1.3,15.5-2.2,23.2-3.4c7.7-1.1,7.7-1.2,10.5,5.9c0.4,0.9,0.7,1.8,1.1,3c-1.8,0.7-3.5,1.3-6.2,2.4
			c2,2.4,3.4,4.2,4.9,6c0.4-0.3,0.9-0.7,1.3-1c-0.5-0.8-1-1.6-1.4-2.4c0.5-0.3,1-0.6,1.4-0.9c2,3.2,4,6.3,6,9.5
			c-0.5,0.5-1,1-1.6,1.5c-3.1-1.9-6.1-3.9-10.6-6.8c-1.4,8.9-2.6,16.6-3.9,24.3C8258.1,8158.7,8258.6,8159,8259.1,8159.2z"/>
		<path d="M8323.8,8209c-0.8,3.4-1.6,6.9-2.5,10.8c2.2,0,3.9,0,6.3,0c0,6.8,0.1,13.5,0,20.2c-0.2,7.4-0.8,14.9-0.9,22.3
			c-0.1,5.9-1.6,10.6-6.9,13.9c-3.5,2.1-6.7,4.8-10.3,7.4c-0.8-1.4-1.5-2.3-1.9-3.3c-7.7-17.7-15.3-35.3-23-53
			c-1.2-2.8-2-4.8,2.1-6.5c3.3-1.3,5.7-4.8,9-7.8c0.1,2.5,0.3,5.4,0.5,8.4c-0.5,0.4-1,0.9-1.5,1.3c1.8,0.2,4.1,1.1,5.1,0.3
			c1.6-1.2,4.5-3.5-0.8-5.7c7-2.3,5.1,5.5,8.9,5.8c2.4-3.4-1.2-8,4.2-11.8C8316.7,8207.8,8320.6,8210.8,8323.8,8209z"/>
		<path d="M8322.1,8143c0.1,0.1,0.7,1,2,2.9c-4-1-6.8-1.7-11.1-2.9c4.3-3.1,7.4-5.3,10.7-7.7c-2.2-1.9,1.6-8-4.3-8.9
			c-2-0.3-6-3.2-6.8,2.4c-0.4-1.6-0.9-3.2-1.3-4.8c-0.4-0.1-0.8-0.2-1.1-0.2c-0.5,1.5-0.9,3-1.4,4.7c-0.7-0.2-2-0.4-2-0.7
			c-0.3-5.4-0.5-10.7-0.6-16.1c0-0.4,1.2-1.1,2-1.2c5.3-0.7,10.7-1.5,16-1.8c1.2-0.1,3.5,1.6,3.5,2.5c0.6,8,1.2,16,0.7,23.9
			C8328.1,8137.8,8324.4,8140.3,8322.1,8143z"/>
		<path d="M8248.5,8227c0.3,8.5-0.3,9.9-6.2,12.4c-0.7,0.3-1.6,0.8-2.4,0.6c-3.3-0.5-6.5-1.2-10.6-2.1c0-3.9,0-8.6,0-13.4
			c0-0.7,0.4-1.6,1-2.1c5.1-5.1,5.1-5.5-1.4-10c1.7-0.6,3.4-1.7,3.8-1.3c1.6,1.5,2.9,3.5,4.5,5.6c6.3-0.6,8.7-2.9,11.2-12
			c0,7.9,0,15.2,0,22.4c-3.4-5.3-8.6-3.2-12.3-1.5c-2.2,1-6.5,3.3-5.6,8.1c4.1-2.4,7.9-4.5,11.5-6.6c1,1.4,2,2.9,3.5,4.8
			C8246.8,8229.8,8247.7,8228.4,8248.5,8227z"/>
		<path d="M8263.2,8176.8c3.8,1.7,6.7,3,9.5,4.2c0.2,0.4,0.5,0.8,0.7,1.2c-1.7,0.5-3.3,1.5-5,1.6
			C8264.1,8184,8264.6,8180.4,8263.2,8176.8z"/>
		<path d="M8262.6,8164.8c4,0.2,6.7,0.4,9.3,0.5c0,0.4,0.1,0.8,0.1,1.1c-1.6,0.4-3.2,0.7-4.8,1.1c0.1,0.5,0,0.9,0.2,1.1
			c1,0.9,2,1.8,3,2.7c-0.4,0.4-1,1.4-1.3,1.3c-1.3-0.5-2.8-1-3.7-2C8264.4,8169.4,8264,8167.7,8262.6,8164.8z"/>
		<path d="M8268.1,8141.6c0,3.3,0,5.9,0,8.5c-0.4,0-0.8,0.1-1.2,0.1c-0.9-1-1.9-2-2.9-3.2
			C8265.2,8145.4,8266.5,8143.8,8268.1,8141.6z"/>
		<path d="M7874.4,8205.1c4.7,3.2,8.7,4.7,12,0.5c2.9-3.6,2.3-7.4-1.4-11.3c2.7-0.7,5-1.2,8.5-2.1c-1.1,10.4-1.4,20.1-3.1,29.4
			c-2.7,14-5.8,28-10,41.5c-2,6.5-7,12.2-10.8,18.1c-0.9,1.4-2.8,2.1-3.5,3.6c-1.4,2.1-2.5,5.4-4.4,5.9c-2.8,0.8-6.4,0.1-9.2-1
			c-1.3-0.5-1.5-3.7-2.1-5.2c-2.1-1.9-4.5-3.4-5.8-5.6c-2.5-4.3-4.5-8.9-6.5-13.5c-1.3-2.9-3.9-6.1,0.3-9c0.5-0.3,0.6-2.4,0.2-2.7
			c-5.2-3.4-1.4-5.9,0.8-8.6c0.4-0.5,0.5-1.2,1.3-3.2c-4,0.6-7.1,1.1-10.7,1.7c-2.5-8.7-5-18.3-8-27.8c-1-3.3-0.1-4.6,2.9-5.4
			c6.3-1.6,12.5-3.4,19.4-5.3c1.1,4.7,2.4,9.1,3.3,13.6c1.2,6.1,1.1,12.7,3.5,18.3c3.5,8.4,8.3,16.4,13.4,24
			c2.5,3.7,5.1,2.9,5.8-1.6c1.7-10.6,3.1-21.3,4-32C7874.8,8220.5,7874.4,8213.3,7874.4,8205.1z M7863.9,8269.9
			c0.5-5.1-0.7-7.8-5.1-8c-3.7-0.1-5.7,3-4.9,7.5c0.4,2.4,1.5,4.7,2.2,7.1c0.9,3,2.7,4.8,5.8,3.7c3.2-1.1,4-3.7,3-6.8
			C7864.6,8271.9,7864.1,8270.3,7863.9,8269.9z M7843.8,8239.7c0.7-0.8,1.2-1.3,1.6-1.8c2.8-2.8,3.2-6,0.2-8.7
			c-1.2-1.1-4.6-1.6-5.5-0.7c-2.7,2.6-3.6,5.8-0.5,9.2c1.2,1.4,1.5,3.6,2.4,6.3c1.2-0.3,2.8-0.6,5.4-1.2
			C7845.8,8241.3,7845,8240.6,7843.8,8239.7z"/>
		<path d="M7859.4,8157.1c-6.6,1.2-12,2.2-18.1,3.2c-0.5-19-1.5-37.2,5.6-54.5c0.6-0.1,1.1-0.1,1.7-0.2
			C7852.2,8122.5,7855.7,8139.4,7859.4,8157.1z"/>
		<path d="M8361.9,8157.5c-1.1,7.1-0.1,15-10.6,17.3c2-3.8,3.7-6.8,5.7-10.5c-0.5-1.1-1.5-3.5-2.9-6.4c-3.3-0.9-7.7-2-12.7-3.3
			c1.5-4.1,6-1.6,8.5-3.7c-0.7-0.8-1.5-2.3-2.5-2.5c-5.9-1.1-4.9-5.1-4.1-9c2-9.4,4-18.7,6-28.1c0.8-3.6,2.7-5.3,6.5-5.4
			c5-0.1,9.9-0.7,15.6-1.1c-4.3,15-8.2,29.6-8.9,45.6c2.5-0.8,4.2-1.4,5.9-1.8c1.5-0.3,3-0.4,5.3-0.7c-2-1.4-3.6-2.5-5.3-3.6
			c0.1-0.4,0.3-0.7,0.4-1.1c6.7,2.7,13.3,5.4,20.9,8.4c0.1-16.6-2.8-31.8-9.4-47.5c8.3-0.3,15.8-0.7,23.2-0.9c0.7,0,1.9,1.3,2.2,2.2
			c5.2,16.1,8.7,32.5,5.5,49.5c-1.7,9.1-6.1,12-15.7,11c-0.3,0-0.7-0.1-1-0.1c-10.8,3.1-19.2-3.1-28.2-7
			C8365.2,8158.2,8363.7,8157.9,8361.9,8157.5z"/>
		<path d="M8387.2,8147.3c-7.4-2.8-13.8-5.3-21.4-8.2c2.8-11.5,5.9-24,8.9-36.5c0.6,0,1.1,0,1.7,0
			C8383.7,8116.2,8386.3,8131.1,8387.2,8147.3z"/>
		<path d="M8341.8,8229.1c-0.5-5.8-1-11.7-1.6-19.2c2.3,1.8,3.4,2.7,4.8,3.8c0.9-0.5,2.2-1.1,2.9-1.4c0.1-2.2,0.2-4.1,0.3-6.5
			c-0.8-3.5-7.7-1-8.1-7c-0.4-5.8,4.6-6.1,6.9-9.1c6.8,5.3,13,15.6,10.7,21.1c-1.1-0.7-2.1-1.8-3.2-1.9c-0.9-0.1-2.7,1.5-2.7,1.6
			c2.3,4.6-0.4,8.7-1.7,12.6c-0.9,2.8-4.4,4.8-6.7,7.2C8342.8,8229.8,8342.3,8229.4,8341.8,8229.1z"/>
		<path d="M8410.7,8227.3c-1.5-1.4-3.1-2.8-5.5-5c4.4-5.1,8.8-10.2,13.8-16C8422.7,8217.1,8415.5,8221.8,8410.7,8227.3z"/>
		<path d="M8357.9,8181.3c-3.5-3.8-2.7-6.8,2.3-8.2c-0.4,8-0.8,15.8-1.3,24.9c-3.8-4.8-6.6-8.3-9.1-11.5
			C8352.7,8184.8,8355.3,8183.1,8357.9,8181.3z"/>
		<path d="M8407.2,8231.3c-1.9,2.5-4,5.9-6.7,8.7c-0.7,0.8-3,0.1-4.6,0.1c-0.1-0.7-0.3-1.4-0.4-2.1
			C8399.6,8235.6,8403.8,8233.2,8407.2,8231.3z"/>
		<path d="M8358.7,8264.5c-6.9,0.9-3.1-6.1-7.1-8.5c2.8,0,4.5,0,6.4,0C8358.2,8258.9,8358.4,8261.6,8358.7,8264.5z"/>
		<path d="M8379.7,8259.1c-1.9,0.7-3.6,1.4-5.7,2.2c-0.1-0.2-0.8-1.4-1.5-2.6c1.9-1,3.9-2,6.1-3.2
			C8379,8256.9,8379.4,8258.1,8379.7,8259.1z"/>
		<path class="st0" d="M8185.4,8233.6c2.1,0.3,4.3,0.3,6.1,1.1c0.5,0.2,0.5,3.3-0.3,4.3c-0.8,1.1-3.7,2.1-4.1,1.7
			c-1.4-1.4-2.1-3.5-3-5.3C8184.5,8234.8,8185,8234.2,8185.4,8233.6z"/>
		<path class="st0" d="M8198.5,8244.1c-1.7,1.4-2.6,2.7-3.7,2.9c-0.6,0.1-2.4-1.7-2.3-2.1c0.5-1.2,1.5-2.4,2.6-2.9
			C8195.6,8241.7,8196.9,8243,8198.5,8244.1z"/>
		<path class="st0" d="M7756.7,8136.4c7,4.2,10,10.5,9.9,17.5c-0.1,2.7-4.6,5.4-7,8.1c-0.4-0.2-0.9-0.4-1.3-0.6
			C7757.6,8153,7757.2,8144.7,7756.7,8136.4z"/>
		<path class="st0" d="M8248.5,8227c-0.8,1.4-1.6,2.8-2.9,5c-1.4-2-2.4-3.4-3.5-4.8c-3.6,2-7.4,4.2-11.5,6.6
			c-0.9-4.8,3.3-7.1,5.6-8.1c3.7-1.7,8.9-3.8,12.3,1.5C8248.5,8227.1,8248.5,8227,8248.5,8227z"/>
		<path class="st0" d="M7863.9,8269.9c0.1,0.5,0.6,2,1.1,3.5c1,3.2,0.2,5.7-3,6.8c-3.2,1.1-5-0.7-5.8-3.7c-0.7-2.4-1.7-4.7-2.2-7.1
			c-0.8-4.5,1.2-7.6,4.9-7.5C7863.2,8262,7864.5,8264.8,7863.9,8269.9z"/>
		<path class="st0" d="M7843.8,8239.7c1.1,0.9,2,1.6,3.7,3.1c-2.6,0.6-4.2,0.9-5.4,1.2c-1-2.6-1.2-4.9-2.4-6.3
			c-3.1-3.4-2.2-6.6,0.5-9.2c0.9-0.8,4.3-0.3,5.5,0.7c3,2.6,2.6,5.8-0.2,8.7C7845,8238.4,7844.6,8238.9,7843.8,8239.7z"/>
	</g>
</g>
</svg>
