<?xml version="1.0" encoding="utf-8"?>
<!-- Generator: Adobe Illustrator 24.0.0, SVG Export Plug-In . SVG Version: 6.00 Build 0)  -->
<svg version="1.1" id="Calque_2" xmlns="http://www.w3.org/2000/svg" xmlns:xlink="http://www.w3.org/1999/xlink" x="0px" y="0px"
	 viewBox="0 0 566 201.3" style="enable-background:new 0 0 566 201.3;" xml:space="preserve">
<style type="text/css">
	.st0{fill:#FFFFFF;}
</style>
<g>
	<path class="st0" d="M54.2,67.7L113.3,23c0.2-0.1,0.3-0.2,0.5-0.2l17.3-1.3c3.2,1.2-15.8,13.3-33.3,24.6
		c-5,38.9-2.9,81.2,3.2,125.5c-0.1,1.9-1.6,4-4.1,6.2l-7.2,8.3c-0.2,0.2-0.6,0.1-0.7-0.2C80.7,141.4,76.8,99.2,79.1,60l-12.5,8.9
		c0,0-0.1,0-0.1,0l-12.2-0.9C54.1,68,54,67.8,54.2,67.7z"/>
	<path class="st0" d="M215.4,101.3c-3.4,1.7-6.1,4-8.4,6.7c-0.3,0.3-0.4,0.7-0.4,1.2c1.2,15.9,1.3,30.9-2.4,43
		c-2,1.3-5.2-2.5-9.3-10.5c-4.6-17.4-8.3-33.7-9.4-46.5c5,0.9,13.4-0.8,21.7-2.1c5.3-0.8,9.6-5.9,9.6-11.2c0-13.9-0.9-26.7-5.4-35.6
		c-4.7-7.7-9.8-13-15.8-11c-2.5,1.5-4.9,3.6-7.3,6.3l-7,1.5c-4.3,2.6-7.6,6.8-10.7,11.2c-9.3,18.3,0.7,68.1,13.9,100.8
		c1.6,3.9,3.6,7.7,6,11.2c0.9,1.3,1.6,2.3,2.4,3c1.5,1.5,3.7,2.2,5.7,1.5c2.1-0.7,3.3-2.3,3.7-4.6c5.4-4.6,8.2-9.3,9.4-14
		c5.9-19.3,9-38.4,7.8-57c0-0.4-0.4-0.8-0.8-0.8l-2.5-0.3c-0.5-0.1-1,0.4-1,0.9L215.4,101.3z M190.9,48.2c3.4,10.4,6,23.2,8.2,37.1
		c0.1,0.4-0.2,0.8-0.6,0.8L186,88.5c-0.5,0.1-0.9-0.3-1-0.8c-0.9-16.4-0.2-31.1,5.5-39.5C190.6,48,190.9,48,190.9,48.2z"/>
	<path class="st0" d="M12.8,137.6l-0.4-0.6c-0.7-0.7-1.4-0.6-2,0.1L9,138.6c-0.5,0.6-0.6,1.5-0.2,2.2l1.3,2.5l-4.9,10.4
		c5.5,19.3,27.5,37.1,43.3,39.1c6.6-0.2,11.1-4,13-12c3.3-2.8,5.4-6.7,6.4-11.4c3.6-20.9,0-36.6-7.2-50.3
		c-5.8-9.2-14.1-14.5-25.5-19.3c-4.7-2-8.1-6.2-8.9-11.3c-0.6-4-0.5-9.1,1-16.4c1.3-5.3,2.8-8.8,4.4-11.2l4.7,28
		c0.1,0.4,0.5,0.6,0.8,0.3c0.9-0.7,2.4-1.8,4.2-2.4c2.2-0.7,8.3-2.7,10.5-3.5c0.5-0.2,0.8-0.7,0.8-1.2l-4.3-32.3
		c-3-7.6-9.1-9-17.3-6.3c-6,2.3-11.2,8.2-15.6,16.7C11,72,9.5,84.6,10.9,98.1c0.4,7.3,2.9,12,7,14.8c4.5,4,12.7,1.1,26.4,16.5
		c2.3,4.3,12.9,18.4,16.5,37.6c-0.8,4.7-4,7.2-9.7,7.4c-14.2-3.3-26.4-16.1-35.4-31.5L12.8,137.6z"/>
	<path class="st0" d="M273.9,119.6L273.9,119.6c-1.4-0.7-3.1-0.2-3.7,1.3c-5.8,13-13.6,25-23.8,29c-8.3-4.1-8.6-25-8.4-47.2
		c0-0.7,0.7-1.2,1.4-1l9.1,3.2c1.2,0.4,2.5-0.1,3.1-1.2l0.1-0.2c0.4-0.7,1.1-1.2,1.9-1.3l7.3-0.9c3.6-0.4,6.4-3.2,6.8-6.8l4.9-39
		c0.7-10.2-3.3-22.2-10.7-22.5l-8.7,6.2c-3.2-1-7.2-0.7-12,0.9c-23.6,40-19.2,109.1-8,124.3c2.8,3.6,6.1,3.1,9.6,0.5l5.8-7.3
		c12.7-5.5,20.2-20.5,26.3-34.7C275.7,121.8,275.1,120.3,273.9,119.6z M252.5,49.9c0-0.1,0.1,0,0.1,0c1.6,13.2,1.7,26.5,0.5,39.8
		c0,0.2-0.2,0.3-0.3,0.2l-11.6-4c-0.2-0.1-0.2-0.2-0.2-0.4C243.5,73.2,247.5,61.4,252.5,49.9z"/>
	<path class="st0" d="M336.6,26.2l-10.8-0.8l-1.4-0.7c-2.2-1-4.6-1.6-7-1.5l-9.3,0.2l-0.4-4c0-0.5-0.5-0.9-1-1l0,0
		c-1-0.1-1.8,0.7-1.9,1.6l-0.1,2l-14.2-3.7c-1-0.3-2,0.6-1.8,1.7v0l-34.9-7.1c-0.3-0.1-0.4,0.3-0.2,0.4l15.6,9.1
		c0.3,0.2,0.6,0.3,0.9,0.4L287,26c-8.5,29.4-12.3,138.3-8.3,165.1c0.1,0.5,0.7,0.6,0.9,0.2c2.5-3.8,8.8-3.7,9.7-11
		c0.4-55,7.9-104.1,18.2-151.1l28.7,2.6c1.6,0.1,3-1.1,3-2.8v0C339.1,27.5,338,26.3,336.6,26.2z"/>
	<path class="st0" d="M333.4,78.6c-3.7,0.1-9-1.9-13.2-2.2c-0.8-0.1-1.5-0.6-1.8-1.4c-3.2-9.8-7.9-16.9-13.5-22.4
		c21.5-9.2,47.1-17.3,75.3-24.7c3.1-0.5,7.8-0.6,12.5-1.1c1.6-0.2,3.3,2.3,2.5,3.8c-12.2,19-28.8,43-44.8,67.3
		c-11.2,17.1-18.3,35.5-24.3,50.6c8.7-13.3,23.2-26.6,41.1-40.1c1.4-1,3.2-1.2,4.7-0.5l2.9,1.3l2.7-2.4c0.7-0.6,1.8-0.6,2.5,0.1l0,0
		c0.7,0.8,0.6,1.9-0.2,2.6c-22.3,16.9-43.6,40.4-64.5,66.9c-0.2,0.3-0.7,0.6-1.1,0.6c-3.7,0.6-6.6-2.3-9.1-2.3c-1.2,0-1.9-0.8-1.6-2
		c10.9-41.8,39.6-89.4,76.4-139.7c-22.4,5.8-42.7,12.5-59.6,20.4c5.1,4.5,9.2,10.2,11,18.2c0.5,2.2,1.4,4,2.7,5.5
		C334.6,77.7,334.2,78.6,333.4,78.6z"/>
	<path class="st0" d="M439.1,147.7c-0.4-0.9-1.5-1.2-2.4-0.7l-4.1,2.4l-3.9-0.5c-1.1-0.1-2.2,0.1-3.2,0.6l-6.3,3.3
		c1.3-5.2-4.9-75.6-8.1-118.3l21.6-9.6c1-0.5,1.3-1.7,0.7-2.6c-0.5-0.7-1.4-1-2.2-0.6l-4.3,1.8l-2.1-0.6c-1.3-0.4-2.7-0.3-3.9,0.3
		l-38.5,17.2c-0.6,0.3-0.6,1.2,0.1,1.4l9,2.7c0.8,0.2,1.7,0.2,2.5-0.2l3.6-2.2l7.1,111.4c0.1,1.3-0.6,2.5-1.7,3.2
		c-6.8,2.2-13,6.6-19.1,11.2c-0.3,0.2-0.2,0.6,0.1,0.7c3.8,0,7.1,1.7,10.6,2.2c0.6,0.1,1.3-0.2,1.9-0.5l41.7-20.1
		C439.2,149.5,439.5,148.5,439.1,147.7z"/>
	<path class="st0" d="M434,141.7l-1.7-100.6c0-1.5,0.9-2.8,2.2-3.3c2.2-0.8,5.4-1.3,8.5-1.7l-0.2-1.6c-0.1-1,0.6-2,1.7-2.1l0,0
		c0.8-0.1,1.5,0.4,1.8,1.1l38.2,95l-3.5-109.4c0-0.4,0.2-0.7,0.5-0.8c2.6-1.2,8.1-0.9,9.5-2.5v-3.4c0-0.7,0.6-1.3,1.3-1.3l0,0
		c1.4-0.1,2.1,0.8,2.1,1.5c4.4,45.1,3.9,91.9,1.5,144c0.2,1.9-7.1,6.1-10.4,9.1c-0.3,0.3-0.8,0.2-0.9-0.2l-37.9-87.4l-0.2,56.3
		c0,0.3-0.1,0.5-0.3,0.7c-3.7,3-9.1,4.4-11.8,6.9C434.2,142,434,141.9,434,141.7z"/>
	<path class="st0" d="M560,110.5c-0.9-0.5-2-0.1-2.5,0.8l-3.1,6l-2,1.1c-1.4,0.8-3.1,2.5-3.8,4c-5.9,11.7-14.6,19.8-25.3,23.1
		c-8.5-6.7-6.5-36.8-4.5-60.5l14.5,6.3c0.6,0.3,1.3,0.3,1.9,0c3.4-1.8,9.7,1.3,13.1-2.6c7.3-8.6,0.8-46.6-12.6-54.5
		c-1.5-0.9-3.3-0.7-4.7,0.3l-4.4,3.4l-5.2,0.9c-1.1,0.2-2.1,0.6-2.9,1.4c-19.2,18.5-17.1,113.1-3.9,118.3
		c9.4,1.6,39.9-27.9,46.3-45.4C561.1,112.1,560.9,111,560,110.5z M527.2,45.8c6.1,9.7,8.7,21.7,9.1,35.2l-12.5-5.4
		c-0.3-0.1-0.7-0.2-1-0.1c0,0-1,0.2-1.7,0.4c-0.4,0.1,3.1,2,3.1,2c0.4,0.3-4.3,2.6-5,2.2C520.2,68.4,522.8,57,527.2,45.8z"/>
	<path class="st0" d="M191.3,172.7c-21.2-23.8-40.7-46.5-54.8-65.8c12.9-9.6,22.8-21,24-31.4c2.1-16.6-10.8-34.6-30.3-34.3
		c-6,0.2-11,6.4-13.3,10c-0.3,0.4-0.4,0.9-0.4,1.4v3.2c0,0.3-0.1,0.6-0.3,0.9l-4.4,4.9c-1.3,1.4-1.9,3.3-1.7,5.2
		c1.2,37,3.8,72.4,9.7,103.9c0,0.1,0.1,0.1,0.2,0c3.4-4.9,10.9-7.1,10.6-10l-4.2-37.3c14.6,20.6,34.2,42,54.6,63.5
		c0.1,0.1,0.2,0,0.2-0.1C182.6,181.5,195.3,176.5,191.3,172.7z M124.5,105.1l-2.8-48.4c15.6,2.1,27.3,11.1,27.1,30.9
		C142.3,94.3,133.8,99.9,124.5,105.1z"/>
</g>
</svg>
