<?xml version="1.0" encoding="utf-8"?>
<!-- Generator: Adobe Illustrator 24.0.0, SVG Export Plug-In . SVG Version: 6.00 Build 0)  -->
<svg version="1.1" id="Calque_1" xmlns="http://www.w3.org/2000/svg" xmlns:xlink="http://www.w3.org/1999/xlink" x="0px" y="0px"
	 viewBox="0 0 2720 1838" style="enable-background:new 0 0 2720 1838;" xml:space="preserve">
<style type="text/css">
	.st0{opacity:5.000000e-02;}
	.st1{fill:#FFFFFF;}
	.st2{fill:#FFFFFF;stroke:#FFFFFF;stroke-width:46;stroke-miterlimit:10;}
</style>
<g id="Calque_1_1_">
	<g class="st0">
		<path class="st1" d="M2385,838c15.7,3.1,29.8,11.6,40,24c10.6,12.9,15.9,28.6,15,44.4c-0.8,14.5-7,28.6-17.3,39.8
			c-10,10.7-23.2,18.1-37.6,20.9H358.3c-14.8-2.4-28.3-9.9-38.5-21.2c-10.6-11.8-16.6-26.9-16.8-42.5c-0.2-15.9,5.5-31.3,16.2-43.5
			c10.2-11.7,24-19.4,39-21.8H2385 M2389,792c-678,0-1356,0-2034,0c-56.4,7.1-98.8,55.8-98,112c0.7,55.1,42.7,102.1,98,109h2034
			c53.6-8,94-52.2,97-104C2489.2,852.8,2447.5,801,2389,792L2389,792z"/>
	</g>
	<g class="st0">
		<path class="st1" d="M2342.7,147c33.4,0.7,62.3,25.8,66.1,57.8c1.7,14.4-1.9,29.4-10.2,42.2c-7.9,12.3-19.7,21.8-33.4,27.1
			L369.1,626c-0.3,0-0.5,0-0.8,0c-15.2,0-30.1-5.4-42-15.1c-11.8-9.7-19.9-23.2-22.7-37.9c-3-15.6,0-31.8,8.4-45.7
			c8-13.3,20.2-23.2,34.7-28.3L2342.7,147 M2341.3,101c-0.9,0-1.7,0-2.6,0C1670.9,218.7,1003.2,336.5,335.5,454.2
			c-54.3,16.8-87.6,72.1-77.1,127.3c9.9,52.3,56.5,90.5,109.9,90.5c1.8,0,3.7,0,5.6-0.1L2377,318.6c51.4-17.2,83.5-67.8,77.5-119.3
			C2448,144.3,2399.2,101,2341.3,101L2341.3,101z"/>
	</g>
	<g class="st0">
		<path class="st1" d="M368.4,1179L368.4,1179c0.3,0,0.5,0,0.8,0l998.3,176l997.7,175.9c14.9,5.8,27.4,16.6,35.3,30.6
			c8.2,14.5,10.7,30.9,7,46.3c-6.8,28.7-33.8,49.7-64.6,50.2L346.8,1306c-14.1-5-26.2-14.7-34.2-27.5c-8.4-13.5-11.7-29.4-9.2-44.7
			C308.4,1202.6,336.4,1179,368.4,1179 M368.4,1133c-54.5,0-101.7,39.8-110.4,93.4c-8.8,54.4,24.3,107.9,77.6,124.4l2003,353.2
			c1,0,2,0,3,0c52.9,0,98.9-36.1,110.6-85.6c12.9-54.8-19.2-113.1-75.2-132.1c-667.7-117.7-1335.4-235.5-2003.1-353.2
			C372.1,1133.1,370.2,1133,368.4,1133L368.4,1133z"/>
	</g>
</g>
<g id="Calque_2_1_">
	<path class="st2" d="M385,814c68.3,0,136.7,0,205,0c58.4,2.1,100.8,53,95,104c-5,44.1-45.2,80.9-95,82c-68.3,0-136.7,0-205,0
		c-55.3,4.1-101.9-38.6-104-89C278.8,857.9,326.6,809.9,385,814z"/>
	<path class="st2" d="M1580.3,814c68.3,0,136.7,0,205,0c58.4,2.1,100.8,53,95,104c-5,44.1-45.2,80.9-95,82c-68.3,0-136.7,0-205,0
		c-55.3,4.1-101.9-38.6-104-89C1474.1,857.9,1521.9,809.9,1580.3,814z"/>
	<path class="st2" d="M986.3,809c68.3,0,136.7,0,205,0c58.4,2.1,100.8,53,95,104c-5,44.1-45.2,80.9-95,82c-68.3,0-136.7,0-205,0
		c-55.3,4.1-101.9-38.6-104-89C880.1,852.9,927.9,804.9,986.3,809z"/>
	<path class="st2" d="M2169.3,814c68.3,0,136.7,0,205,0c58.4,2.1,100.8,53,95,104c-5,44.1-45.2,80.9-95,82c-68.3,0-136.7,0-205,0
		c-55.3,4.1-101.9-38.6-104-89C2063.1,857.9,2110.9,809.9,2169.3,814z"/>
	<path class="st2" d="M396.9,1155.2c67.3,11.9,134.6,23.7,201.9,35.6c57.1,12.2,90.1,69.7,75.5,118.9
		c-12.6,42.5-58.6,71.9-107.8,64.3c-67.3-11.9-134.6-23.7-201.9-35.6c-55.2-5.6-93.7-55.7-87-105.7
		C284.7,1180,340.1,1141,396.9,1155.2z"/>
	<path class="st2" d="M1574.1,1362.7c67.3,11.9,134.6,23.7,201.9,35.6c57.1,12.2,90.1,69.7,75.5,118.9
		c-12.6,42.5-58.6,71.9-107.8,64.3c-67.3-11.9-134.6-23.7-201.9-35.6c-55.2-5.6-93.7-55.7-87-105.7
		C1461.8,1387.5,1517.3,1348.5,1574.1,1362.7z"/>
	<path class="st2" d="M989.9,1254.7c67.3,11.9,134.6,23.7,201.9,35.6c57.1,12.2,90.1,69.7,75.5,118.9
		c-12.6,42.5-58.6,71.9-107.8,64.3c-67.3-11.9-134.6-23.7-201.9-35.6c-55.2-5.6-93.7-55.7-87-105.7
		C877.7,1279.4,933.2,1240.5,989.9,1254.7z"/>
	<path class="st2" d="M2154.1,1465c67.3,11.9,134.6,23.7,201.9,35.6c57.1,12.2,90.1,69.7,75.5,118.9
		c-12.6,42.5-58.6,71.9-107.8,64.3c-67.3-11.9-134.6-23.7-201.9-35.6c-55.2-5.6-93.7-55.7-87-105.7
		C2041.9,1489.8,2097.3,1450.8,2154.1,1465z"/>
	<path class="st2" d="M364.5,466.1c67.3-11.9,134.6-23.7,201.9-35.6c57.8-8.1,108.5,34.7,111.6,85.9c2.7,44.3-30.5,87.6-79.3,97.3
		c-67.3,11.9-134.6,23.7-201.9,35.6C343,662.9,289.7,629,278.9,579.7C267.5,527.8,306.3,472.2,364.5,466.1z"/>
	<path class="st2" d="M1541.6,258.6c67.3-11.9,134.6-23.7,201.9-35.6c57.8-8.1,108.5,34.7,111.6,85.9c2.7,44.3-30.5,87.6-79.3,97.3
		c-67.3,11.9-134.6,23.7-201.9,35.6c-53.7,13.6-107.1-20.3-117.9-69.6C1444.6,320.2,1483.4,264.7,1541.6,258.6z"/>
	<path class="st2" d="M955.8,356.8c67.3-11.9,134.6-23.7,201.9-35.6c57.8-8.1,108.5,34.7,111.6,85.9c2.7,44.3-30.5,87.6-79.3,97.3
		c-67.3,11.9-134.6,23.7-201.9,35.6c-53.7,13.6-107.1-20.3-117.9-69.6C858.8,418.5,897.6,362.9,955.8,356.8z"/>
	<path class="st2" d="M2121.7,156.3c67.3-11.9,134.6-23.7,201.9-35.6c57.8-8.1,108.5,34.7,111.6,85.9c2.7,44.3-30.5,87.6-79.3,97.3
		c-67.3,11.9-134.6,23.7-201.9,35.6c-53.7,13.6-107.1-20.3-117.9-69.6C2024.7,218,2063.4,162.4,2121.7,156.3z"/>
</g>
</svg>
