<?xml version="1.0" encoding="utf-8"?>
<!-- Generator: Adobe Illustrator 24.0.0, SVG Export Plug-In . SVG Version: 6.00 Build 0)  -->
<svg version="1.1" id="Calque_7" xmlns="http://www.w3.org/2000/svg" xmlns:xlink="http://www.w3.org/1999/xlink" x="0px" y="0px"
	 viewBox="0 0 3868 4195" style="enable-background:new 0 0 3868 4195;" xml:space="preserve">
<style type="text/css">
	.st0{fill:none;stroke:#FFFFFF;stroke-width:45;stroke-miterlimit:10;}
</style>
<g id="Calque_3">
	<path class="st0" d="M2583,2008c-63.2,46.4-120.6,92.1-172.6,136.5c-8.1,6.9-16,13.8-23.9,20.6c-155.9,136.1-262,259.8-335,357.4
		c-49,65.5-126.1,177-257,327c-95.5,109.5-179.9,194.1-237,249c-12.6,9-25.1,18-37.7,27c-139.3,99.8-279.5,198.4-420.3,296
		c-39.4,27.3-78.9,54.5-118.4,81.6C913.3,3549.6,845.2,3596,777,3642c-144.3,87-288.7,174-433,261V1906
		c108.1-254.2,191-461.7,245.5-600.5c141.9-361.7,213.9-572.8,388-826c81.4-118.4,128-206,208-261c70-46,164.4-41.5,278-45
		c124.2-3.8,215-5,292,29c28.4,26.6,59.6,174.6-39,265c-14.9,13.6-36.2,31.9-69,45c-95.3,15-190.7,30-286,45
		c-40.9,76.9-82.2,163.6-121,260c-39.7,98.6-70.5,192-94.6,277.9c-3.2,11.5-6.4,22.9-9.4,34.1c-4.4,49-6.2,111.9,1.7,184
		c4.9,44.5,13.4,92.6,27.3,143c20.2,73.5,47.1,135.1,73,184c47.7,85,120.1,190.3,229,290c42,38.5,83.7,70.8,123,98h261.8
		c44.9,0,88.8-13.2,126.2-37.9c128.1-84.7,226.2-189,343.1-281.1c13.1-7.3,35.4-18.3,65-26c7.1-1.8,14.6-3.5,22.5-4.9
		c13.4-2.3,28-3.9,43.5-4.1c29.4-0.4,55.2,3.9,76.7,9.7c39.1,10.6,72.3,36.8,90.9,72.8c12.7,24.5,23.7,56.7,24.4,95.5
		C2646.1,1940.7,2593.2,1997.4,2583,2008z"/>
</g>
<g id="Calque_4">
	<path class="st0" d="M1847.5,545.5v214.8h-318.8c1.3-71.6,2.5-143.2,3.8-214.8H1847.5z"/>
	<path class="st0" d="M2386.5,1683.5v-370H1138.2c-7.9-72.1-6.1-135-1.7-184c3-11.2,6.1-22.6,9.4-34.1c11.2,0.2,22.4,0.5,33.7,0.7
		c13.6,0.3,26.4-6.6,33.6-18.2c28.9-46.3,57.9-92.5,86.8-138.8c5.5-8.8,14-15.3,23.8-18.3c21.9-6.8,43.8-13.5,65.7-20.3
		c46.3-43.7,92.7-87.3,139-131c0-3.1,0.1-6.2,0.2-9.3h318.8v14.3l139.2,130.7c5,4.7,11.5,7.7,18.3,8.5c19.1,2.1,34.2,8.1,52.9,10.5
		c8.9,1.2,20.5,8,25.7,15.3c35.6,49.6,72.8,94.2,108.3,144c2.4,3.3,5.2,6.3,8.5,8.7c33.7,25,78,52.3,133.1,74.3
		c17.1,6.8,33.6,12.5,49.4,17.2c14.6,4.4,24.7,17.8,24.7,33.1c0.5,153.9,0.9,307.9,1.4,461.8
		C2401.1,1680,2393.6,1681.6,2386.5,1683.5z"/>
	<path class="st0" d="M2415.4,3820.4c0.1,24.7-17.1,46.2-41.3,51.5c-202.2,44.5-463.5,81.3-767.6,72.6
		c-223.9-6.4-420.9-36-584.3-71.9c-26-5.7-44.5-28.9-44.2-55.6c1.1-104.7,2.1-209.3,3.2-314c39.5-27.1,79-54.3,118.4-81.6
		c140.9-97.5,281-196.2,420.3-296c288.9-0.7,577.8-1.3,866.7-2V2165c7.8-6.8,15.8-13.7,23.9-20.6
		C2412,2703.1,2413.7,3261.8,2415.4,3820.4z"/>
</g>
<g id="Calque_5">
	<path class="st0" d="M2386.5,1313.5v370c-29.6,7.7-51.9,18.7-65,26c-122.2,96.2-244.3,192.5-366.5,288.7
		c-24.9,19.6-55.8,30.3-87.5,30.3h-277c-39.3-27.2-81-59.5-123-98c-108.9-99.7-181.3-205-229-290c-25.9-48.9-52.8-110.5-73-184
		c-13.9-50.4-22.4-98.5-27.3-143H2386.5z"/>
	<path class="st0" d="M2386.5,2165.1v958.4c-288.9,0.7-577.8,1.3-866.7,2c12.6-9,25.1-18,37.7-27c57.1-54.9,141.5-139.5,237-249
		c130.9-150,208-261.5,257-327C2124.5,2424.8,2230.6,2301.2,2386.5,2165.1z"/>
</g>
<g id="Calque_6">
</g>
</svg>
